<?xml version="1.0" encoding="UTF-8" standalone="no"?>
<!DOCTYPE svg PUBLIC "-//W3C//DTD SVG 1.1//EN" "http://www.w3.org/Graphics/SVG/1.1/DTD/svg11.dtd">
<!-- Created with Vectornator (http://vectornator.io/) -->
<svg height="100%" stroke-miterlimit="10" style="fill-rule:nonzero;clip-rule:evenodd;stroke-linecap:round;stroke-linejoin:round;" version="1.1" viewBox="0 0 353.122 353.122" width="100%" xml:space="preserve" xmlns="http://www.w3.org/2000/svg" xmlns:vectornator="http://vectornator.io" xmlns:xlink="http://www.w3.org/1999/xlink">
<defs>
<linearGradient gradientTransform="matrix(1 0 0 1 -2.37794 -699.226)" gradientUnits="userSpaceOnUse" id="LinearGradient" x1="185.969" x2="178.898" y1="473.242" y2="1051.66">
<stop offset="0" stop-color="#0066ff"/>
<stop offset="1" stop-color="#0066ff" stop-opacity="0"/>
</linearGradient>
<radialGradient cx="257.498" cy="498.443" gradientTransform="matrix(1.75011 -0.0204836 0.0103138 0.881206 -407.32 -241.119)" gradientUnits="userSpaceOnUse" id="RadialGradient" r="20.198">
<stop offset="0" stop-color="#fff30b"/>
<stop offset="1" stop-color="#ffab00"/>
</radialGradient>
<radialGradient cx="375.386" cy="415.207" gradientTransform="matrix(0.795923 -0.620641 0.840294 1.07867 -536.716 -113.08)" gradientUnits="userSpaceOnUse" id="RadialGradient_2" r="41.611">
<stop offset="0" stop-color="#ffffff" stop-opacity="0.502"/>
<stop offset="0.648501" stop-color="#ffffff" stop-opacity="0.555985"/>
<stop offset="1" stop-color="#ffffff" stop-opacity="0.528958"/>
</radialGradient>
<radialGradient cx="375.386" cy="415.207" gradientTransform="matrix(1.25477 -0.0179214 0.0242759 1.69968 -324.178 -616.011)" gradientUnits="userSpaceOnUse" id="RadialGradient_3" r="41.611">
<stop offset="0" stop-color="#ffffff" stop-opacity="0.5"/>
<stop offset="0.648501" stop-color="#ffffff" stop-opacity="0.706564"/>
<stop offset="1" stop-color="#ffffff" stop-opacity="0.725869"/>
</radialGradient>
<radialGradient cx="299.763" cy="663.706" gradientTransform="matrix(1.01305 -0.157728 0.116283 0.753942 -228.278 -260.17)" gradientUnits="userSpaceOnUse" id="RadialGradient_4" r="91.6668">
<stop offset="0" stop-color="#fafa5c"/>
<stop offset="0.732822" stop-color="#ffc911"/>
<stop offset="1" stop-color="#ebb212"/>
</radialGradient>
<linearGradient gradientTransform="matrix(0.988095 -0.153842 0.152432 0.988314 675.965 -540.377)" gradientUnits="userSpaceOnUse" id="LinearGradient_2" x1="-676.329" x2="-633.929" y1="480.35" y2="639.646">
<stop offset="0" stop-color="#ffffff" stop-opacity="0.672646"/>
<stop offset="1" stop-color="#ffffff" stop-opacity="0"/>
</linearGradient>
<radialGradient cx="441.437" cy="484.909" gradientTransform="matrix(4.36612 3.66667 -3.68427 4.38709 120.456 -3583.11)" gradientUnits="userSpaceOnUse" id="RadialGradient_5" r="10.6066">
<stop offset="0" stop-color="#fff63b"/>
<stop offset="0.604942" stop-color="#f5c843"/>
<stop offset="0.847901" stop-color="#fcce20"/>
<stop offset="1" stop-color="#eab011"/>
</radialGradient>
<radialGradient cx="445.804" cy="488.88" gradientTransform="matrix(1.0118 0 0 1.0118 -223.221 -340.488)" gradientUnits="userSpaceOnUse" id="RadialGradient_6" r="31.5179">
<stop offset="0" stop-color="#ffffff"/>
<stop offset="0.835979" stop-color="#ffffff"/>
<stop offset="1" stop-color="#c0c0c0"/>
<stop offset="1" stop-color="#ffffff"/>
</radialGradient>
<radialGradient cx="445.804" cy="488.88" gradientTransform="matrix(1.0118 0 0 1.0118 -153.015 -345.538)" gradientUnits="userSpaceOnUse" id="RadialGradient_7" r="31.5179">
<stop offset="0" stop-color="#ffffff"/>
<stop offset="0.835979" stop-color="#ffffff"/>
<stop offset="1" stop-color="#c0c0c0"/>
<stop offset="1" stop-color="#ffffff"/>
</radialGradient>
<radialGradient cx="441.437" cy="484.909" gradientTransform="matrix(0.818191 0 0 0.812238 -84.3597 -319.549)" gradientUnits="userSpaceOnUse" id="RadialGradient_8" r="10.6066">
<stop offset="0" stop-color="#ffe603"/>
<stop offset="0.754627" stop-color="#ffbe06"/>
<stop offset="1" stop-color="#ff9218"/>
</radialGradient>
<radialGradient cx="441.437" cy="484.909" gradientTransform="matrix(0.818191 0 0 0.812238 -122.367 -312.478)" gradientUnits="userSpaceOnUse" id="RadialGradient_9" r="10.6066">
<stop offset="0" stop-color="#ffe603"/>
<stop offset="0.754627" stop-color="#ffbe06"/>
<stop offset="1" stop-color="#ff9218"/>
</radialGradient>
<radialGradient cx="557.574" cy="708.987" gradientTransform="matrix(0.836685 0.00638918 -0.00836637 1.0956 -353.215 -506.803)" gradientUnits="userSpaceOnUse" id="RadialGradient_10" r="59.6859">
<stop offset="0" stop-color="#fff63b"/>
<stop offset="0.320172" stop-color="#f5c843"/>
<stop offset="0.661969" stop-color="#fcce20"/>
<stop offset="1" stop-color="#eab011"/>
</radialGradient>
<radialGradient cx="604.954" cy="230.515" gradientTransform="matrix(1.31172 2.11967 -2.78472 6.19532 18.0382 -2468.5)" gradientUnits="userSpaceOnUse" id="RadialGradient_11" r="9.13074">
<stop offset="0" stop-color="#ffe603"/>
<stop offset="0.890565" stop-color="#ffbe06"/>
<stop offset="1" stop-color="#ff9218"/>
</radialGradient>
<clipPath id="TextBounds">
<rect height="100.503" width="154.942" x="198.18" y="222.887"/>
</clipPath>
<clipPath id="TextBounds_2">
<rect height="4.86003" width="20" x="285.168" y="339.777"/>
</clipPath>
<linearGradient gradientTransform="matrix(1 0 0 1 0 0)" gradientUnits="userSpaceOnUse" id="LinearGradient_3" x1="285.168" x2="305.168" y1="342.207" y2="342.207">
<stop offset="0" stop-color="#0066ff"/>
<stop offset="1" stop-color="#0066ff" stop-opacity="0"/>
</linearGradient>
<clipPath id="TextBounds_3">
<rect height="15" width="31.6816" x="353.977" y="115.091"/>
</clipPath>
<linearGradient gradientTransform="matrix(1 0 0 1 0 0)" gradientUnits="userSpaceOnUse" id="LinearGradient_4" x1="353.977" x2="385.659" y1="122.591" y2="122.591">
<stop offset="0" stop-color="#0066ff"/>
<stop offset="0.148646" stop-color="#0066ff" stop-opacity="0"/>
</linearGradient>
</defs>
<clipPath id="ArtboardFrame">
<rect height="353.122" width="353.122" x="0" y="0"/>
</clipPath>
<g clip-path="url(#ArtboardFrame)" id="layer2" vectornator:layerName="layer2">
<g opacity="1">
<path d="M2.1232-0.472058L354.037-0.472058L354.037-0.472058L354.037 351.442L354.037 351.442L2.1232 351.442L2.1232 351.442L2.1232-0.472058L2.1232-0.472058Z" fill="url(#LinearGradient)" fill-rule="nonzero" opacity="1" stroke="none"/>
<path d="M66.1495 203.318C45.0825 198.727 42.3897 194.972 26.7535 181.347C40.8495 188.723 50.643 187.742 66.1495 187.913L66.1495 203.318Z" fill="url(#RadialGradient)" fill-rule="nonzero" opacity="1" stroke="#000000" stroke-linecap="butt" stroke-linejoin="miter" stroke-width="1.06299"/>
<path d="M126.385 67.3932C141.363 87.1974 150.393 129.558 135.342 140.953C120.29 152.348 99.5443 141.533 84.566 121.729C69.5877 101.924 66.1167 85.3469 76.3608 72.0594C86.5892 58.7924 111.407 47.589 126.385 67.3932Z" fill="url(#RadialGradient_2)" fill-rule="nonzero" opacity="1" stroke="#ffffff" stroke-linecap="butt" stroke-linejoin="miter" stroke-opacity="0.471043" stroke-width="1"/>
<path d="M198.036 60.4441C198.036 91.3129 175.22 140.076 151.748 140.076C128.276 140.076 115.814 113.789 115.814 82.92C115.814 52.0513 124.805 33.0155 144.93 27.5323C165.023 22.0574 198.036 29.5754 198.036 60.4441Z" fill="url(#RadialGradient_3)" fill-rule="nonzero" opacity="1" stroke="#ffffff" stroke-linecap="butt" stroke-linejoin="miter" stroke-opacity="0.559846" stroke-width="1"/>
<path d="M60.2198 207.324C54.3738 169.421 90.9839 132.256 141.991 124.314C192.998 116.372 239.086 140.662 244.932 178.565C250.778 216.469 214.168 253.634 163.161 261.576C112.154 269.517 66.0658 245.228 60.2198 207.324Z" fill="url(#RadialGradient_4)" fill-rule="nonzero" opacity="1" stroke="#000000" stroke-linecap="round" stroke-linejoin="round" stroke-width="1.06223"/>
<path d="M182.716 124.796L179.81 125.265C178.384 168.563 179.818 211.566 192.06 253.421C202.183 249.151 211.24 243.636 218.904 237.233C210.218 203.035 208.318 168.477 209.404 133.733C201.392 129.64 192.394 126.618 182.716 124.796Z" fill="#501616" fill-rule="nonzero" opacity="1" stroke="#000000" stroke-linecap="round" stroke-linejoin="round" stroke-width="1.06299"/>
<path d="M148.998 123.546C145.368 123.501 127.133 127.179 113.716 132.233C111.504 175.842 112.506 219.167 124.81 261.515C136.253 263.413 148.567 263.629 161.216 261.858C146.666 216.497 145.557 169.658 148.998 123.546Z" fill="#501616" fill-rule="nonzero" opacity="1" stroke="#000000" stroke-linecap="round" stroke-linejoin="round" stroke-width="1.06299"/>
<path d="M81.0601 153.327C65.4383 168.552 57.2111 187.842 60.2163 207.327C62.8927 224.679 74.0298 239.155 90.1851 249.015C82.3174 217.396 80.2284 185.437 81.0601 153.327Z" fill="#501616" fill-rule="nonzero" opacity="1" stroke="#000000" stroke-linecap="round" stroke-linejoin="round" stroke-width="1.06299"/>
<path d="M60.2198 207.324C54.3738 169.421 90.9839 132.256 141.991 124.314C192.998 116.372 239.086 140.662 244.932 178.565C250.778 216.469 214.168 253.634 163.161 261.576C112.154 269.517 66.0658 245.228 60.2198 207.324Z" fill="url(#LinearGradient_2)" fill-rule="nonzero" opacity="1" stroke="#000000" stroke-linecap="round" stroke-linejoin="round" stroke-width="1.06224"/>
<path d="M322.053 162.827C322.053 196.188 295.157 223.309 261.798 223.589C228.439 223.869 201.092 197.202 200.533 163.847C199.973 130.491 226.41 102.922 259.759 102.082C293.109 101.243 320.899 127.447 322.018 160.789" fill="url(#RadialGradient_5)" fill-rule="nonzero" opacity="1" stroke="#000000" stroke-linecap="butt" stroke-linejoin="miter" stroke-width="1.06299"/>
<path d="M259.733 154.161C259.733 171.669 245.618 185.903 228.111 186.05C210.603 186.197 196.252 172.202 195.958 154.696C195.664 137.191 209.538 122.722 227.041 122.281C244.543 121.841 259.128 135.593 259.715 153.091" fill="url(#RadialGradient_6)" fill-rule="nonzero" opacity="1" stroke="none"/>
<g opacity="1">
<path d="M229.635 154.004C229.635 159.566 225.151 164.088 219.59 164.134C214.028 164.181 209.469 159.735 209.376 154.174C209.282 148.613 213.69 144.017 219.25 143.877C224.81 143.737 229.443 148.106 229.629 153.664" fill="#000000" fill-rule="nonzero" opacity="1" stroke="none"/>
<path d="M228.603 151.633C228.603 153.963 226.724 155.857 224.395 155.876C222.065 155.896 220.155 154.034 220.116 151.704C220.077 149.375 221.923 147.449 224.252 147.391C226.581 147.332 228.522 149.162 228.6 151.491" fill="#ffffff" fill-rule="nonzero" opacity="1" stroke="none"/>
</g>
<path d="M329.939 149.11C329.939 166.618 315.824 180.852 298.316 180.999C280.809 181.146 266.457 167.151 266.164 149.645C265.87 132.14 279.744 117.671 297.246 117.231C314.749 116.79 329.333 130.543 329.921 148.041" fill="url(#RadialGradient_7)" fill-rule="nonzero" opacity="1" stroke="none"/>
<g opacity="1">
<path d="M318.012 146.412C318.012 151.974 313.528 156.496 307.967 156.542C302.405 156.589 297.846 152.143 297.753 146.582C297.66 141.021 302.067 136.425 307.627 136.285C313.187 136.145 317.82 140.514 318.006 146.072" fill="#000000" fill-rule="nonzero" opacity="1" stroke="none"/>
<path d="M316.98 144.041C316.98 146.371 315.102 148.265 312.772 148.284C310.442 148.304 308.532 146.442 308.493 144.112C308.454 141.783 310.301 139.857 312.63 139.799C314.959 139.74 316.899 141.57 316.977 143.899" fill="#ffffff" fill-rule="nonzero" opacity="1" stroke="none"/>
</g>
<path d="M274.482 81.7556C265.484 96.239 266.495 99.5277 265.876 116.065C263.02 96.0249 263.354 96.1804 271.198 78.9654L274.482 81.7556Z" fill="#280b0b" fill-rule="nonzero" opacity="1" stroke="none"/>
<path d="M285.435 74.3127C285.435 79.0425 281.621 82.8878 276.892 82.9275C272.162 82.9671 268.285 79.1863 268.206 74.4572C268.126 69.7281 271.874 65.8193 276.603 65.7003C281.331 65.5813 285.271 69.2965 285.43 74.0237" fill="url(#RadialGradient_8)" fill-rule="nonzero" opacity="1" stroke="#000000" stroke-linecap="butt" stroke-linejoin="miter" stroke-width="1.06299"/>
<path d="M241.788 87.0619C254.156 98.7999 254.009 102.237 258.789 118.081C256.485 97.9699 256.201 98.2048 244.26 83.5321L241.788 87.0619Z" fill="#280b0b" fill-rule="nonzero" opacity="1" stroke="none"/>
<path d="M247.428 81.3837C247.428 86.1135 243.614 89.9588 238.885 89.9985C234.155 90.0382 230.278 86.2574 230.199 81.5283C230.119 76.7991 233.867 72.8904 238.596 72.7714C243.324 72.6524 247.264 76.3676 247.423 81.0947" fill="url(#RadialGradient_9)" fill-rule="nonzero" opacity="1" stroke="#000000" stroke-linecap="butt" stroke-linejoin="miter" stroke-width="1.06299"/>
<path d="M237.564 193.021C266.743 214.857 275.648 208.424 298.426 187.146C273.077 207.751 263.33 204.899 237.564 193.021Z" fill="#501616" fill-rule="nonzero" opacity="1" stroke="#000000" stroke-linecap="butt" stroke-linejoin="miter" stroke-width="0.644882"/>
<path d="M102.032 210.967C95.6787 224.056 109.307 262.725 123.323 275.532C100.864 272.764 78.3667 274.427 55.8504 282.61L57.3569 287.194C74.3636 294.728 123.743 295.073 131.814 279.243C137.732 258.812 113.612 221.921 107.088 208.351L102.032 210.967Z" fill="url(#RadialGradient_10)" fill-rule="nonzero" opacity="1" stroke="#000000" stroke-linecap="butt" stroke-linejoin="miter" stroke-width="0.8"/>
<path d="M179.398 195.882L150.023 261.507" fill="#6d6d6d" fill-rule="nonzero" opacity="0.711806" stroke="#535353" stroke-linecap="butt" stroke-linejoin="miter" stroke-width="2.41654"/>
<path d="M180.443 196.492C186.536 195.204 194.897 196.559 195.014 207.5L158.856 287.351L144.286 276.343L180.443 196.492Z" fill="url(#RadialGradient_11)" fill-rule="nonzero" opacity="1" stroke="#000000" stroke-linecap="butt" stroke-linejoin="miter" stroke-width="0.999213"/>
<g opacity="1">
<path d="M159.359 270.124C162.787 268.735 167.869 273.298 170.71 280.315C173.552 287.331 173.076 294.144 169.648 295.532C166.221 296.92 161.138 292.358 158.297 285.341C155.456 278.325 155.931 271.512 159.359 270.124Z" fill="#000000" fill-rule="nonzero" opacity="1" stroke="none"/>
<path d="M152.073 266.333C153.594 269.704 149.234 274.961 142.334 278.075C135.434 281.188 128.607 280.979 127.086 277.608C125.565 274.237 129.925 268.981 136.825 265.867C143.725 262.754 150.552 262.962 152.073 266.333Z" fill="#000000" fill-rule="nonzero" opacity="1" stroke="none"/>
<path d="M153.582 267.89C156.707 269.869 155.958 276.657 151.908 283.053C147.859 289.449 142.044 293.03 138.919 291.052C135.794 289.074 136.544 282.285 140.593 275.889C144.642 269.493 150.458 265.912 153.582 267.89Z" fill="#000000" fill-rule="nonzero" opacity="1" stroke="none"/>
<path d="M160.359 270.491C163.915 271.506 165.114 278.23 163.037 285.509C160.96 292.789 156.393 297.867 152.836 296.852C149.28 295.837 148.081 289.113 150.159 281.834C152.236 274.555 156.803 269.477 160.359 270.491Z" fill="#000000" fill-rule="nonzero" opacity="1" stroke="none"/>
<path d="M148.545 263.9C154.272 265.168 159.672 267.682 164.704 271.601L160.504 279.731L144.434 271.89L148.545 263.9Z" fill="#000000" fill-rule="nonzero" opacity="1" stroke="none"/>
</g>
<path d="M100.669 210.757C97.3236 229.162 102.852 241.73 109.669 258.007" fill="none" opacity="1" stroke="#6d6d6d" stroke-linecap="butt" stroke-linejoin="miter" stroke-width="0.8"/>
<path d="M164.639 270.08L193.014 207.08C192.283 202.743 191.122 199.959 187.639 197.705" fill="none" opacity="1" stroke="#ffffff" stroke-linecap="butt" stroke-linejoin="miter" stroke-width="0.8"/>
<path d="M106.191 210.382C116.343 231.032 128.091 246.723 130.441 267.132" fill="none" opacity="1" stroke="#ffffff" stroke-linecap="butt" stroke-linejoin="miter" stroke-width="0.8"/>
<path d="M165.299 272.689C167.075 274.686 168.683 277.591 169.742 281.016C171.965 288.207 170.925 294.938 167.411 296.024C165.867 296.502 164.092 295.791 162.409 294.253C164.272 296.21 166.297 297.182 168.033 296.645C171.546 295.559 172.587 288.829 170.363 281.638C169.185 277.829 167.309 274.676 165.299 272.689ZM127.919 276.293C129.462 278.238 133.245 278.913 137.707 278.22C137.837 277.96 137.937 277.704 138.08 277.443C133.723 278.307 129.879 277.873 127.919 276.293ZM147.96 285.397C143.992 289.161 139.672 290.745 137.334 288.971C137.515 289.204 137.72 289.413 137.955 289.592C140.134 291.246 144.041 289.959 147.774 286.734C147.829 286.293 147.876 285.853 147.96 285.397ZM159.333 290.307C156.652 294.521 153.211 296.879 150.633 295.9C150.311 295.778 150.003 295.616 149.732 295.403C150.151 295.918 150.667 296.298 151.254 296.521C153.797 297.487 157.165 295.189 159.83 291.084C159.665 290.826 159.491 290.58 159.333 290.307Z" fill="#ffffff" fill-rule="nonzero" opacity="1" stroke="none"/>
<path d="M64.021 300.049L70.7357 310.92C75.6748 318.396 68.6466 329.575 62.0589 328.919C47.7753 327.495 47.4935 299.589 51.2014 286.935C51.9669 284.634 55.1814 274.602 58.6175 278.107C62.2193 281.781 61.3355 282.014 63.1778 289.663L64.021 300.049Z" fill="#000000" fill-rule="nonzero" opacity="1" stroke="none"/>
<path d="M60.4858 281.497C61.0352 282.97 61.2198 284.826 62.2002 288.897L63.0123 298.912L63.7643 300.146L62.9822 290.431C61.6524 284.909 61.7922 283.397 60.4858 281.497ZM70.3814 311.154C73.1469 318.213 66.9556 327.286 61.1174 326.704C57.2864 326.322 54.5219 323.949 52.5753 320.478C54.5316 324.768 57.5336 327.773 61.8994 328.208C68.1643 328.833 74.8083 318.346 70.3814 311.154Z" fill="#ffffff" fill-rule="nonzero" opacity="0.618056" stroke="none"/>
<path d="M63.5289 287.766C70.4397 288.316 72.6835 289.152 77.6945 289.625C95.355 291.29 107.007 291.458 121.472 285.371C124.82 283.961 125.899 283.174 129.193 280.028" fill="none" opacity="1" stroke="#ffffff" stroke-linecap="butt" stroke-linejoin="miter" stroke-width="0.8"/>
<g fill="#0066ff" opacity="1" stroke="none">
<path clip-path="url(#TextBounds)" d="M204.665 261.998C206.127 261.586 207.343 261.752 208.31 262.494C209.065 263.073 209.604 263.934 209.925 265.077C210.273 266.314 210.249 267.431 209.851 268.427C209.385 269.597 208.469 270.374 207.104 270.758C205.83 271.117 204.709 270.978 203.743 270.34C202.864 269.711 202.25 268.776 201.901 267.535C201.585 266.415 201.594 265.377 201.926 264.424C202.353 263.2 203.266 262.391 204.665 261.998ZM206.957 269.716C207.946 269.438 208.562 268.882 208.805 268.049C209.047 267.216 209.039 266.339 208.779 265.418C208.506 264.444 208.03 263.731 207.354 263.281C206.677 262.83 205.897 262.729 205.013 262.977C204.156 263.218 203.539 263.709 203.163 264.45C202.787 265.191 202.761 266.135 203.083 267.282C203.341 268.199 203.791 268.908 204.433 269.407C205.074 269.906 205.916 270.009 206.957 269.716Z"/>
<path clip-path="url(#TextBounds)" d="M211.649 262.699L212.777 266.71C212.863 267.018 212.983 267.256 213.136 267.424C213.418 267.734 213.805 267.82 214.298 267.682C215.005 267.483 215.397 267.032 215.475 266.328C215.519 265.95 215.458 265.466 215.292 264.876L214.458 261.909L215.473 261.624L217.172 267.665L216.213 267.934L215.974 267.04C215.907 267.306 215.798 267.546 215.647 267.759C215.348 268.184 214.923 268.474 214.37 268.629C213.509 268.872 212.841 268.749 212.367 268.261C212.111 268.001 211.911 267.613 211.766 267.098L210.611 262.991L211.649 262.699Z"/>
<path clip-path="url(#TextBounds)" d="M221.115 265.819C221.588 265.686 221.927 265.377 222.129 264.892C222.331 264.407 222.321 263.769 222.099 262.98C221.964 262.498 221.778 262.104 221.542 261.797C221.091 261.206 220.516 261.008 219.817 261.205C219.114 261.403 218.731 261.89 218.67 262.666C218.636 263.081 218.701 263.578 218.864 264.157C218.995 264.624 219.176 265.001 219.407 265.289C219.846 265.839 220.415 266.016 221.115 265.819ZM216.987 261.228L217.974 260.951L218.199 261.751C218.325 261.42 218.487 261.145 218.686 260.927C218.964 260.605 219.335 260.379 219.797 260.249C220.482 260.056 221.136 260.155 221.762 260.545C222.387 260.936 222.836 261.618 223.11 262.592C223.48 263.908 223.401 264.945 222.871 265.702C222.536 266.182 222.078 266.504 221.499 266.667C221.044 266.795 220.634 266.802 220.27 266.69C220.058 266.628 219.802 266.491 219.503 266.278L220.371 269.364L219.356 269.649L216.987 261.228Z"/>
<path clip-path="url(#TextBounds)" d="M225.252 263.347C225.377 263.677 225.535 263.912 225.725 264.054C226.073 264.309 226.562 264.348 227.194 264.17C227.57 264.064 227.878 263.889 228.118 263.645C228.358 263.401 228.429 263.108 228.333 262.766C228.26 262.507 228.09 262.341 227.822 262.271C227.652 262.229 227.336 262.215 226.873 262.227L226.009 262.251C225.458 262.268 225.038 262.232 224.749 262.143C224.236 261.991 223.911 261.673 223.774 261.188C223.614 260.616 223.689 260.096 224.002 259.626C224.314 259.157 224.818 258.824 225.514 258.629C226.424 258.373 227.155 258.455 227.707 258.876C228.055 259.144 228.279 259.474 228.382 259.867L227.423 260.137C227.34 259.913 227.2 259.727 227.004 259.579C226.696 259.378 226.254 259.358 225.679 259.52C225.295 259.628 225.026 259.783 224.869 259.985C224.713 260.187 224.669 260.408 224.737 260.649C224.811 260.912 225 261.086 225.304 261.171C225.48 261.223 225.726 261.243 226.039 261.232L226.756 261.207C227.535 261.179 228.072 261.212 228.367 261.308C228.835 261.456 229.147 261.809 229.304 262.365C229.455 262.903 229.382 263.425 229.084 263.93C228.786 264.436 228.219 264.807 227.384 265.041C226.486 265.294 225.792 265.269 225.303 264.967C224.814 264.664 224.472 264.215 224.276 263.621L225.252 263.347Z"/>
<path clip-path="url(#TextBounds)" d="M231.503 264.905C231.75 264.787 231.881 264.554 231.897 264.204C231.905 264.019 231.888 263.848 231.843 263.69C231.836 263.664 231.828 263.64 231.821 263.62C231.813 263.6 231.802 263.578 231.787 263.554L231.172 263.727L230.826 262.497L232.033 262.157L232.353 263.297C232.479 263.744 232.5 264.163 232.414 264.552C232.329 264.941 232.076 265.237 231.654 265.441L231.503 264.905Z"/>
<path clip-path="url(#TextBounds)" d="M235.677 255.94L236.642 255.669L236.883 256.526C237.069 256.093 237.3 255.754 237.577 255.509C237.853 255.265 238.187 255.088 238.578 254.978C239.435 254.737 240.098 254.873 240.567 255.387C240.825 255.667 241.039 256.112 241.21 256.721L242.3 260.596L241.268 260.887L240.197 257.079C240.094 256.711 239.956 256.429 239.783 256.234C239.497 255.909 239.117 255.813 238.643 255.946C238.402 256.014 238.212 256.094 238.071 256.186C237.816 256.347 237.618 256.581 237.478 256.889C237.365 257.135 237.312 257.372 237.321 257.599C237.33 257.826 237.39 258.137 237.502 258.531L238.392 261.696L237.376 261.981L235.677 255.94Z"/>
<path clip-path="url(#TextBounds)" d="M246.014 258.846C246.687 258.656 247.077 258.272 247.184 257.692C247.29 257.112 247.256 256.51 247.08 255.886C246.922 255.322 246.703 254.888 246.423 254.586C245.98 254.109 245.409 253.97 244.71 254.166C244.09 254.341 243.705 254.705 243.556 255.258C243.407 255.811 243.427 256.422 243.615 257.092C243.796 257.735 244.088 258.231 244.491 258.58C244.893 258.929 245.401 259.018 246.014 258.846ZM244.489 253.273C245.267 253.054 245.999 253.128 246.682 253.496C247.366 253.864 247.849 254.551 248.133 255.559C248.407 256.533 248.396 257.404 248.101 258.173C247.806 258.942 247.161 259.466 246.164 259.747C245.333 259.981 244.594 259.885 243.947 259.46C243.3 259.036 242.843 258.35 242.577 257.402C242.291 256.387 242.321 255.506 242.667 254.759C243.013 254.013 243.62 253.517 244.489 253.273Z"/>
<path clip-path="url(#TextBounds)" d="M249.541 252.04L250.669 256.051C250.756 256.359 250.876 256.597 251.029 256.765C251.311 257.076 251.698 257.161 252.191 257.023C252.898 256.824 253.29 256.373 253.368 255.669C253.412 255.292 253.351 254.808 253.185 254.217L252.35 251.25L253.366 250.965L255.065 257.006L254.106 257.275L253.867 256.381C253.799 256.647 253.69 256.887 253.539 257.1C253.241 257.525 252.815 257.815 252.262 257.97C251.401 258.213 250.734 258.09 250.26 257.603C250.004 257.342 249.803 256.954 249.659 256.439L248.504 252.332L249.541 252.04Z"/>
<path clip-path="url(#TextBounds)" d="M256.72 254.495C256.846 254.825 257.003 255.061 257.193 255.202C257.541 255.457 258.03 255.496 258.662 255.318C259.038 255.212 259.346 255.038 259.586 254.794C259.826 254.55 259.897 254.257 259.801 253.914C259.728 253.655 259.558 253.49 259.291 253.419C259.121 253.377 258.804 253.363 258.341 253.376L257.477 253.399C256.926 253.416 256.506 253.38 256.217 253.291C255.704 253.139 255.379 252.821 255.243 252.336C255.082 251.764 255.158 251.244 255.47 250.775C255.782 250.305 256.286 249.973 256.982 249.777C257.892 249.521 258.623 249.604 259.176 250.024C259.523 250.292 259.748 250.622 259.85 251.015L258.891 251.285C258.808 251.061 258.668 250.875 258.473 250.727C258.164 250.526 257.723 250.506 257.147 250.668C256.764 250.776 256.494 250.931 256.338 251.133C256.181 251.335 256.137 251.557 256.205 251.797C256.279 252.061 256.468 252.235 256.772 252.32C256.949 252.371 257.194 252.392 257.507 252.381L258.224 252.355C259.004 252.327 259.541 252.36 259.835 252.456C260.303 252.604 260.615 252.957 260.772 253.513C260.923 254.051 260.85 254.573 260.552 255.079C260.254 255.585 259.687 255.955 258.853 256.19C257.954 256.443 257.26 256.418 256.771 256.115C256.282 255.812 255.94 255.364 255.744 254.769L256.72 254.495Z"/>
<path clip-path="url(#TextBounds)" d="M263.936 247.991L264.9 247.72L265.142 248.577C265.328 248.144 265.559 247.805 265.835 247.561C266.112 247.316 266.445 247.139 266.836 247.029C267.694 246.788 268.357 246.924 268.826 247.438C269.083 247.718 269.298 248.163 269.469 248.772L270.559 252.647L269.527 252.938L268.456 249.13C268.352 248.762 268.214 248.48 268.042 248.285C267.756 247.96 267.376 247.864 266.902 247.997C266.661 248.065 266.471 248.145 266.33 248.237C266.075 248.398 265.877 248.632 265.736 248.94C265.623 249.187 265.571 249.423 265.58 249.65C265.589 249.877 265.649 250.188 265.76 250.582L266.65 253.747L265.635 254.032L263.936 247.991Z"/>
<path clip-path="url(#TextBounds)" d="M272.838 245.341C273.267 245.221 273.71 245.204 274.169 245.292C274.628 245.38 275.008 245.555 275.308 245.815C275.597 246.062 275.833 246.38 276.014 246.767C276.153 247.028 276.308 247.463 276.479 248.073L272.051 249.318C272.243 249.926 272.526 250.377 272.901 250.671C273.276 250.965 273.747 251.032 274.315 250.873C274.845 250.724 275.219 250.43 275.436 249.991C275.56 249.737 275.621 249.466 275.621 249.178L276.62 248.897C276.656 249.127 276.638 249.398 276.566 249.713C276.494 250.027 276.391 250.297 276.255 250.522C276.031 250.909 275.707 251.22 275.281 251.453C275.054 251.582 274.786 251.69 274.478 251.776C273.726 251.988 273.011 251.894 272.335 251.494C271.658 251.093 271.181 250.401 270.904 249.416C270.631 248.445 270.673 247.584 271.029 246.83C271.385 246.077 271.988 245.58 272.838 245.341ZM275.209 247.56C275.044 247.131 274.849 246.807 274.624 246.586C274.209 246.175 273.676 246.061 273.025 246.244C272.559 246.375 272.215 246.654 271.994 247.079C271.773 247.505 271.726 247.979 271.853 248.504L275.209 247.56Z"/>
<path clip-path="url(#TextBounds)" d="M284.051 248.116C284.525 247.982 284.863 247.673 285.065 247.188C285.268 246.703 285.258 246.066 285.036 245.276C284.9 244.795 284.714 244.401 284.478 244.094C284.028 243.502 283.453 243.305 282.753 243.502C282.05 243.7 281.668 244.187 281.606 244.963C281.573 245.378 281.637 245.875 281.8 246.454C281.931 246.92 282.113 247.297 282.344 247.585C282.783 248.136 283.352 248.312 284.051 248.116ZM279.923 243.525L280.91 243.247L281.136 244.048C281.261 243.716 281.424 243.442 281.622 243.223C281.901 242.902 282.271 242.676 282.734 242.545C283.418 242.353 284.073 242.452 284.698 242.842C285.323 243.232 285.773 243.914 286.047 244.888C286.417 246.204 286.337 247.241 285.808 247.999C285.472 248.479 285.015 248.8 284.436 248.963C283.981 249.091 283.571 249.099 283.206 248.986C282.994 248.924 282.739 248.787 282.439 248.575L283.307 251.66L282.292 251.946L279.923 243.525Z"/>
<path clip-path="url(#TextBounds)" d="M290.331 246.38C291.004 246.19 291.394 245.806 291.501 245.226C291.608 244.646 291.573 244.044 291.398 243.42C291.239 242.856 291.02 242.422 290.74 242.12C290.297 241.643 289.727 241.504 289.027 241.7C288.407 241.875 288.022 242.239 287.873 242.792C287.725 243.345 287.744 243.956 287.933 244.626C288.114 245.269 288.405 245.765 288.808 246.114C289.21 246.463 289.718 246.552 290.331 246.38ZM288.806 240.807C289.585 240.588 290.316 240.662 290.999 241.03C291.683 241.398 292.167 242.085 292.45 243.093C292.724 244.067 292.714 244.938 292.419 245.707C292.123 246.476 291.478 247 290.481 247.281C289.65 247.515 288.911 247.419 288.264 246.994C287.617 246.57 287.16 245.884 286.894 244.936C286.608 243.921 286.639 243.04 286.984 242.293C287.33 241.547 287.938 241.051 288.806 240.807Z"/>
<path clip-path="url(#TextBounds)" d="M293.859 239.574L294.987 243.585C295.073 243.893 295.193 244.131 295.346 244.299C295.628 244.61 296.015 244.695 296.508 244.557C297.215 244.358 297.607 243.907 297.685 243.203C297.729 242.826 297.668 242.342 297.502 241.751L296.668 238.784L297.683 238.499L299.382 244.54L298.423 244.809L298.184 243.915C298.117 244.181 298.008 244.421 297.856 244.634C297.558 245.059 297.132 245.349 296.58 245.504C295.719 245.747 295.051 245.624 294.577 245.137C294.321 244.876 294.121 244.488 293.976 243.973L292.821 239.866L293.859 239.574Z"/>
<path clip-path="url(#TextBounds)" d="M299.764 237.913L302.761 242.378L303.064 236.985L304.175 236.673L303.595 243.354L302.513 243.659L298.585 238.245L299.764 237.913Z"/>
<path clip-path="url(#TextBounds)" d="M308.956 241.141C309.629 240.951 310.019 240.567 310.126 239.987C310.233 239.407 310.198 238.805 310.023 238.181C309.864 237.617 309.645 237.183 309.365 236.881C308.922 236.404 308.351 236.265 307.652 236.461C307.032 236.636 306.647 237 306.498 237.553C306.349 238.106 306.369 238.717 306.558 239.387C306.738 240.03 307.03 240.526 307.433 240.875C307.835 241.224 308.343 241.313 308.956 241.141ZM307.431 235.568C308.21 235.349 308.941 235.423 309.624 235.791C310.308 236.159 310.792 236.846 311.075 237.854C311.349 238.828 311.338 239.699 311.043 240.468C310.748 241.237 310.103 241.761 309.106 242.042C308.275 242.276 307.536 242.18 306.889 241.755C306.242 241.331 305.785 240.645 305.519 239.697C305.233 238.682 305.263 237.801 305.609 237.054C305.955 236.308 306.562 235.812 307.431 235.568Z"/>
<path clip-path="url(#TextBounds)" d="M311.468 234.621L312.433 234.35L312.674 235.207C312.86 234.773 313.091 234.434 313.368 234.19C313.644 233.946 313.978 233.769 314.369 233.659C315.226 233.418 315.889 233.554 316.358 234.067C316.616 234.348 316.83 234.793 317.002 235.402L318.092 239.277L317.059 239.567L315.988 235.76C315.885 235.391 315.747 235.11 315.574 234.915C315.288 234.589 314.908 234.493 314.434 234.627C314.193 234.694 314.003 234.774 313.862 234.867C313.607 235.028 313.409 235.262 313.269 235.569C313.156 235.816 313.103 236.053 313.112 236.28C313.121 236.506 313.182 236.817 313.293 237.212L314.183 240.376L313.167 240.662L311.468 234.621Z"/>
<path clip-path="url(#TextBounds)" d="M319.662 236.79C319.788 237.12 319.945 237.356 320.135 237.497C320.483 237.752 320.973 237.791 321.604 237.613C321.98 237.507 322.288 237.333 322.528 237.089C322.768 236.845 322.84 236.552 322.743 236.209C322.67 235.95 322.5 235.785 322.233 235.714C322.063 235.672 321.746 235.658 321.283 235.671L320.419 235.694C319.868 235.711 319.448 235.675 319.159 235.586C318.646 235.434 318.321 235.116 318.185 234.631C318.024 234.059 318.1 233.539 318.412 233.07C318.724 232.6 319.228 232.268 319.924 232.072C320.834 231.816 321.565 231.899 322.118 232.319C322.465 232.587 322.69 232.917 322.792 233.31L321.833 233.58C321.75 233.356 321.61 233.17 321.415 233.022C321.106 232.821 320.665 232.801 320.089 232.963C319.706 233.071 319.436 233.226 319.28 233.428C319.124 233.63 319.079 233.852 319.147 234.092C319.221 234.356 319.41 234.53 319.714 234.615C319.891 234.666 320.136 234.687 320.449 234.676L321.166 234.65C321.946 234.622 322.483 234.655 322.777 234.751C323.245 234.899 323.557 235.252 323.714 235.808C323.865 236.346 323.792 236.868 323.494 237.374C323.196 237.88 322.629 238.25 321.795 238.485C320.896 238.738 320.202 238.713 319.713 238.41C319.224 238.107 318.882 237.659 318.687 237.064L319.662 236.79Z"/>
<path clip-path="url(#TextBounds)" d="M209.496 283.631C209.97 283.497 210.308 283.188 210.51 282.703C210.713 282.218 210.703 281.581 210.481 280.791C210.345 280.31 210.159 279.916 209.923 279.609C209.472 279.017 208.897 278.82 208.198 279.017C207.495 279.215 207.112 279.702 207.051 280.478C207.017 280.893 207.082 281.39 207.245 281.969C207.376 282.435 207.557 282.812 207.788 283.1C208.227 283.651 208.796 283.827 209.496 283.631ZM205.368 279.04L206.355 278.762L206.58 279.563C206.706 279.231 206.868 278.957 207.067 278.738C207.345 278.417 207.716 278.191 208.179 278.06C208.863 277.868 209.518 277.967 210.143 278.357C210.768 278.747 211.217 279.429 211.491 280.403C211.862 281.719 211.782 282.756 211.252 283.514C210.917 283.994 210.459 284.315 209.88 284.478C209.425 284.606 209.016 284.614 208.651 284.501C208.439 284.439 208.183 284.302 207.884 284.09L208.752 287.175L207.737 287.461L205.368 279.04Z"/>
<path clip-path="url(#TextBounds)" d="M213.889 281.397C213.972 281.69 214.144 281.891 214.406 282C214.668 282.109 214.945 282.122 215.239 282.04C215.596 281.939 215.918 281.759 216.207 281.5C216.693 281.066 216.849 280.538 216.673 279.913L216.443 279.096C216.341 279.209 216.2 279.32 216.019 279.428C215.839 279.535 215.658 279.627 215.476 279.702L214.883 279.954C214.529 280.107 214.274 280.262 214.119 280.419C213.857 280.683 213.78 281.009 213.889 281.397ZM215.771 278.652C215.995 278.556 216.124 278.414 216.156 278.227C216.176 278.124 216.162 277.988 216.115 277.819C216.017 277.473 215.824 277.256 215.533 277.169C215.243 277.083 214.869 277.104 214.41 277.233C213.88 277.382 213.544 277.631 213.402 277.979C213.323 278.172 213.308 278.429 213.358 278.752L212.411 279.019C212.22 278.269 212.316 277.683 212.698 277.261C213.081 276.839 213.578 276.542 214.191 276.369C214.902 276.169 215.517 276.142 216.037 276.288C216.553 276.435 216.892 276.794 217.052 277.366L218.031 280.846C218.061 280.951 218.106 281.03 218.168 281.082C218.229 281.134 218.329 281.14 218.468 281.101C218.513 281.088 218.563 281.071 218.618 281.049C218.673 281.028 218.731 281.003 218.791 280.973L219.003 281.723C218.857 281.813 218.745 281.875 218.665 281.91C218.586 281.944 218.475 281.982 218.332 282.022C217.982 282.12 217.693 282.067 217.465 281.864C217.346 281.755 217.235 281.586 217.134 281.354C217.003 281.683 216.772 282.002 216.441 282.31C216.109 282.618 215.711 282.838 215.244 282.969C214.684 283.127 214.178 283.085 213.727 282.845C213.276 282.605 212.979 282.229 212.835 281.717C212.677 281.157 212.73 280.674 212.993 280.267C213.256 279.86 213.661 279.541 214.209 279.31L215.771 278.652Z"/>
<path clip-path="url(#TextBounds)" d="M220.058 279.351C220.183 279.681 220.341 279.917 220.531 280.058C220.878 280.313 221.368 280.352 222 280.174C222.376 280.069 222.684 279.894 222.923 279.65C223.163 279.406 223.235 279.113 223.139 278.77C223.066 278.511 222.895 278.346 222.628 278.275C222.458 278.234 222.142 278.219 221.678 278.232L220.815 278.255C220.264 278.273 219.844 278.236 219.555 278.147C219.041 277.996 218.716 277.677 218.58 277.192C218.419 276.62 218.495 276.1 218.807 275.631C219.12 275.161 219.624 274.829 220.319 274.633C221.229 274.377 221.961 274.46 222.513 274.88C222.86 275.148 223.085 275.478 223.188 275.872L222.229 276.141C222.145 275.917 222.006 275.731 221.81 275.583C221.502 275.382 221.06 275.362 220.485 275.524C220.101 275.632 219.831 275.787 219.675 275.989C219.519 276.191 219.475 276.413 219.542 276.653C219.616 276.917 219.805 277.091 220.109 277.176C220.286 277.227 220.531 277.248 220.845 277.237L221.562 277.211C222.341 277.183 222.878 277.217 223.173 277.312C223.641 277.461 223.953 277.813 224.109 278.37C224.261 278.907 224.187 279.429 223.889 279.935C223.591 280.441 223.025 280.811 222.19 281.046C221.291 281.299 220.598 281.274 220.109 280.971C219.62 280.668 219.277 280.22 219.082 279.626L220.058 279.351Z"/>
<path clip-path="url(#TextBounds)" d="M227.77 272.708L230.766 277.173L231.069 271.78L232.181 271.467L231.601 278.149L230.518 278.454L226.591 273.04L227.77 272.708Z"/>
<path clip-path="url(#TextBounds)" d="M236.962 275.935C237.635 275.746 238.025 275.361 238.131 274.781C238.238 274.202 238.204 273.6 238.028 272.975C237.869 272.411 237.65 271.978 237.37 271.675C236.928 271.199 236.357 271.059 235.658 271.256C235.037 271.431 234.653 271.794 234.504 272.348C234.355 272.901 234.375 273.512 234.563 274.181C234.744 274.824 235.036 275.32 235.438 275.67C235.841 276.019 236.349 276.108 236.962 275.935ZM235.437 270.363C236.215 270.144 236.946 270.218 237.63 270.586C238.313 270.953 238.797 271.641 239.081 272.649C239.354 273.623 239.344 274.494 239.049 275.263C238.754 276.032 238.108 276.556 237.112 276.836C236.281 277.07 235.542 276.975 234.895 276.55C234.248 276.125 233.791 275.439 233.524 274.492C233.239 273.476 233.269 272.596 233.615 271.849C233.961 271.102 234.568 270.607 235.437 270.363Z"/>
<path clip-path="url(#TextBounds)" d="M240.489 269.13L241.617 273.141C241.704 273.449 241.824 273.687 241.976 273.855C242.258 274.165 242.646 274.251 243.138 274.113C243.845 273.914 244.238 273.462 244.316 272.759C244.36 272.381 244.299 271.897 244.132 271.307L243.298 268.34L244.313 268.054L246.012 274.095L245.054 274.365L244.814 273.471C244.747 273.737 244.638 273.977 244.487 274.19C244.188 274.615 243.763 274.905 243.21 275.06C242.349 275.302 241.681 275.18 241.207 274.692C240.951 274.431 240.751 274.044 240.606 273.528L239.451 269.422L240.489 269.13Z"/>
<path clip-path="url(#TextBounds)" d="M247.668 271.585C247.793 271.915 247.951 272.15 248.141 272.292C248.488 272.547 248.978 272.586 249.61 272.408C249.986 272.302 250.294 272.127 250.534 271.883C250.773 271.639 250.845 271.346 250.749 271.004C250.676 270.745 250.506 270.579 250.238 270.509C250.068 270.467 249.752 270.453 249.289 270.465L248.425 270.489C247.874 270.506 247.454 270.47 247.165 270.381C246.652 270.229 246.327 269.911 246.19 269.426C246.029 268.854 246.105 268.334 246.417 267.864C246.73 267.395 247.234 267.062 247.929 266.867C248.839 266.611 249.571 266.693 250.123 267.114C250.47 267.382 250.695 267.712 250.798 268.105L249.839 268.375C249.755 268.151 249.616 267.965 249.42 267.817C249.112 267.616 248.67 267.596 248.095 267.758C247.711 267.866 247.441 268.021 247.285 268.223C247.129 268.425 247.085 268.646 247.153 268.887C247.227 269.15 247.416 269.324 247.719 269.409C247.896 269.461 248.141 269.481 248.455 269.47L249.172 269.445C249.951 269.417 250.488 269.45 250.783 269.546C251.251 269.694 251.563 270.047 251.719 270.603C251.871 271.141 251.797 271.663 251.499 272.168C251.201 272.674 250.635 273.045 249.8 273.279C248.901 273.532 248.208 273.507 247.719 273.205C247.23 272.902 246.888 272.453 246.692 271.859L247.668 271.585Z"/>
<path clip-path="url(#TextBounds)" d="M254.879 264.09C254.775 263.665 254.762 263.336 254.838 263.103C254.978 262.691 255.386 262.389 256.063 262.199C256.127 262.181 256.193 262.164 256.262 262.149C256.331 262.134 256.409 262.118 256.498 262.101L256.758 263.026C256.651 263.048 256.573 263.065 256.526 263.076C256.478 263.087 256.434 263.099 256.393 263.111C256.084 263.197 255.922 263.329 255.907 263.506C255.892 263.683 255.976 264.098 256.16 264.752L257.164 264.47L257.39 265.271L256.374 265.556L257.841 270.768L256.837 271.051L255.37 265.839L254.53 266.075L254.305 265.274L255.145 265.038L254.879 264.09Z"/>
<path clip-path="url(#TextBounds)" d="M262.005 268.891C262.678 268.701 263.068 268.317 263.175 267.737C263.282 267.157 263.247 266.555 263.072 265.931C262.913 265.367 262.694 264.933 262.414 264.631C261.972 264.155 261.401 264.015 260.701 264.212C260.081 264.386 259.696 264.75 259.547 265.303C259.399 265.856 259.418 266.467 259.607 267.137C259.788 267.78 260.079 268.276 260.482 268.625C260.885 268.975 261.392 269.063 262.005 268.891ZM260.48 263.318C261.259 263.099 261.99 263.173 262.673 263.541C263.357 263.909 263.841 264.597 264.124 265.604C264.398 266.578 264.388 267.45 264.093 268.218C263.798 268.987 263.152 269.512 262.155 269.792C261.324 270.026 260.585 269.93 259.938 269.506C259.291 269.081 258.835 268.395 258.568 267.447C258.282 266.432 258.313 265.551 258.659 264.804C259.004 264.058 259.612 263.562 260.48 263.318Z"/>
<path clip-path="url(#TextBounds)" d="M265.533 262.086L266.661 266.096C266.747 266.404 266.867 266.643 267.02 266.811C267.302 267.121 267.689 267.207 268.182 267.068C268.889 266.869 269.281 266.418 269.359 265.714C269.403 265.337 269.342 264.853 269.176 264.262L268.342 261.295L269.357 261.01L271.056 267.051L270.097 267.321L269.858 266.426C269.791 266.693 269.682 266.932 269.531 267.145C269.232 267.57 268.806 267.86 268.254 268.016C267.393 268.258 266.725 268.135 266.251 267.648C265.995 267.387 265.795 266.999 265.65 266.484L264.495 262.378L265.533 262.086Z"/>
<path clip-path="url(#TextBounds)" d="M270.97 260.556L271.935 260.285L272.228 261.328C272.25 261.103 272.374 260.801 272.6 260.423C272.827 260.045 273.141 259.799 273.544 259.686C273.562 259.681 273.595 259.674 273.641 259.665C273.687 259.656 273.766 259.642 273.879 259.622L274.18 260.694C274.117 260.7 274.059 260.708 274.007 260.718C273.955 260.729 273.9 260.742 273.839 260.759C273.328 260.903 272.981 261.178 272.799 261.585C272.617 261.991 272.587 262.408 272.707 262.837L273.685 266.311L272.669 266.597L270.97 260.556Z"/>
<path clip-path="url(#TextBounds)" d="M274.789 259.482L275.753 259.211L275.994 260.068C276.181 259.634 276.412 259.295 276.688 259.051C276.965 258.807 277.298 258.63 277.689 258.52C278.547 258.279 279.21 258.415 279.679 258.928C279.936 259.209 280.151 259.654 280.322 260.263L281.412 264.138L280.38 264.428L279.309 260.621C279.205 260.252 279.067 259.971 278.895 259.776C278.608 259.45 278.228 259.354 277.755 259.488C277.514 259.555 277.323 259.635 277.183 259.728C276.928 259.889 276.73 260.123 276.589 260.43C276.476 260.677 276.424 260.914 276.433 261.141C276.442 261.367 276.502 261.678 276.613 262.073L277.503 265.237L276.488 265.523L274.789 259.482Z"/>
<path clip-path="url(#TextBounds)" d="M281.221 257.703L282.253 257.413L283.945 263.425L282.912 263.716L281.221 257.703ZM280.582 255.43L281.614 255.14L281.938 256.29L280.905 256.581L280.582 255.43Z"/>
<path clip-path="url(#TextBounds)" d="M283.808 256.945L284.772 256.674L285.066 257.717C285.088 257.492 285.212 257.19 285.438 256.812C285.665 256.434 285.979 256.188 286.381 256.075C286.4 256.07 286.433 256.063 286.479 256.054C286.525 256.045 286.604 256.031 286.716 256.011L287.018 257.083C286.954 257.089 286.897 257.097 286.845 257.107C286.793 257.118 286.737 257.131 286.677 257.148C286.166 257.292 285.819 257.567 285.637 257.973C285.455 258.38 285.424 258.797 285.545 259.226L286.522 262.7L285.507 262.986L283.808 256.945Z"/>
<path clip-path="url(#TextBounds)" d="M290.233 252.715L291.248 252.43L293.579 260.715L292.563 261.001L290.233 252.715Z"/>
<path clip-path="url(#TextBounds)" d="M295.428 258.461C295.51 258.754 295.682 258.955 295.944 259.064C296.206 259.173 296.484 259.186 296.777 259.104C297.134 259.003 297.457 258.823 297.745 258.563C298.232 258.13 298.388 257.602 298.212 256.977L297.982 256.16C297.88 256.273 297.739 256.384 297.558 256.492C297.377 256.599 297.196 256.691 297.015 256.766L296.422 257.018C296.067 257.171 295.812 257.326 295.658 257.483C295.395 257.747 295.319 258.073 295.428 258.461ZM297.309 255.716C297.534 255.62 297.663 255.478 297.695 255.291C297.715 255.188 297.701 255.052 297.653 254.882C297.556 254.537 297.362 254.32 297.072 254.233C296.782 254.147 296.407 254.168 295.949 254.297C295.418 254.446 295.083 254.695 294.941 255.043C294.861 255.236 294.847 255.493 294.897 255.816L293.949 256.083C293.759 255.333 293.855 254.747 294.237 254.325C294.619 253.903 295.117 253.606 295.73 253.433C296.441 253.233 297.056 253.206 297.576 253.352C298.092 253.499 298.43 253.858 298.591 254.43L299.57 257.91C299.6 258.015 299.645 258.094 299.706 258.146C299.768 258.197 299.868 258.204 300.007 258.165C300.052 258.152 300.102 258.135 300.157 258.113C300.212 258.092 300.269 258.066 300.33 258.037L300.541 258.787C300.396 258.877 300.284 258.939 300.204 258.974C300.124 259.008 300.013 259.045 299.87 259.086C299.521 259.184 299.232 259.131 299.004 258.928C298.884 258.819 298.774 258.649 298.672 258.418C298.542 258.747 298.311 259.066 297.979 259.374C297.648 259.682 297.249 259.902 296.783 260.033C296.223 260.191 295.717 260.149 295.266 259.909C294.815 259.669 294.517 259.293 294.374 258.781C294.216 258.221 294.269 257.738 294.532 257.331C294.795 256.924 295.2 256.605 295.748 256.374L297.309 255.716Z"/>
<path clip-path="url(#TextBounds)" d="M307.093 256.178C307.567 256.044 307.905 255.735 308.107 255.25C308.31 254.765 308.3 254.128 308.078 253.338C307.942 252.857 307.756 252.463 307.52 252.156C307.069 251.564 306.495 251.367 305.795 251.564C305.092 251.761 304.709 252.248 304.648 253.025C304.614 253.44 304.679 253.937 304.842 254.516C304.973 254.982 305.154 255.359 305.386 255.647C305.824 256.198 306.394 256.374 307.093 256.178ZM302.965 251.587L303.952 251.309L304.178 252.11C304.303 251.778 304.465 251.503 304.664 251.285C304.943 250.963 305.313 250.737 305.776 250.607C306.46 250.415 307.115 250.514 307.74 250.904C308.365 251.294 308.815 251.976 309.089 252.95C309.459 254.266 309.379 255.303 308.85 256.061C308.514 256.541 308.056 256.862 307.477 257.025C307.022 257.153 306.613 257.161 306.248 257.048C306.036 256.986 305.78 256.849 305.481 256.637L306.349 259.722L305.334 260.008L302.965 251.587Z"/>
<path clip-path="url(#TextBounds)" d="M311.486 253.944C311.569 254.237 311.741 254.438 312.003 254.547C312.265 254.656 312.542 254.669 312.836 254.586C313.193 254.486 313.516 254.306 313.804 254.046C314.291 253.613 314.446 253.085 314.271 252.46L314.04 251.642C313.939 251.756 313.797 251.867 313.617 251.975C313.436 252.082 313.255 252.174 313.073 252.249L312.48 252.501C312.126 252.654 311.871 252.809 311.716 252.966C311.454 253.23 311.377 253.556 311.486 253.944ZM313.368 251.199C313.593 251.103 313.721 250.961 313.753 250.774C313.773 250.671 313.759 250.535 313.712 250.365C313.614 250.019 313.421 249.803 313.13 249.716C312.84 249.63 312.466 249.651 312.007 249.78C311.477 249.929 311.141 250.178 310.999 250.526C310.92 250.719 310.905 250.976 310.955 251.299L310.008 251.566C309.817 250.816 309.913 250.23 310.295 249.808C310.678 249.386 311.175 249.088 311.788 248.916C312.499 248.716 313.114 248.689 313.634 248.835C314.15 248.982 314.489 249.341 314.65 249.913L315.629 253.393C315.658 253.498 315.704 253.577 315.765 253.629C315.826 253.68 315.926 253.687 316.065 253.648C316.11 253.635 316.16 253.618 316.215 253.596C316.27 253.575 316.328 253.549 316.389 253.52L316.6 254.27C316.454 254.36 316.342 254.422 316.262 254.456C316.183 254.491 316.072 254.528 315.929 254.569C315.579 254.667 315.29 254.614 315.063 254.41C314.943 254.302 314.832 254.132 314.731 253.901C314.6 254.23 314.369 254.549 314.038 254.857C313.707 255.165 313.308 255.385 312.841 255.516C312.281 255.674 311.776 255.632 311.324 255.392C310.873 255.152 310.576 254.776 310.432 254.264C310.274 253.704 310.327 253.221 310.59 252.814C310.853 252.407 311.258 252.088 311.806 251.857L313.368 251.199Z"/>
<path clip-path="url(#TextBounds)" d="M317.987 247.215C318.461 247.082 318.907 247.082 319.326 247.216C319.555 247.293 319.805 247.43 320.075 247.626L319.861 246.865L320.797 246.601L322.342 252.095C322.558 252.862 322.616 253.499 322.515 254.006C322.324 254.945 321.644 255.578 320.475 255.907C319.824 256.09 319.236 256.098 318.71 255.932C318.185 255.765 317.808 255.379 317.581 254.773L318.613 254.483C318.738 254.74 318.895 254.921 319.083 255.027C319.376 255.188 319.768 255.199 320.261 255.06C321.039 254.841 321.472 254.424 321.558 253.807C321.61 253.443 321.513 252.848 321.268 252.02C321.152 252.385 320.972 252.683 320.728 252.914C320.485 253.145 320.128 253.326 319.658 253.459C319.004 253.643 318.366 253.572 317.745 253.245C317.123 252.919 316.662 252.22 316.36 251.148C316.076 250.137 316.101 249.277 316.436 248.57C316.771 247.864 317.288 247.412 317.987 247.215ZM320.687 249.803C320.477 249.055 320.167 248.544 319.757 248.269C319.347 247.995 318.903 247.925 318.426 248.059C317.711 248.26 317.316 248.733 317.241 249.476C317.203 249.872 317.265 250.36 317.428 250.939C317.619 251.62 317.903 252.099 318.279 252.377C318.656 252.654 319.077 252.727 319.543 252.596C320.273 252.391 320.694 251.918 320.806 251.176C320.866 250.757 320.827 250.3 320.687 249.803Z"/>
<path clip-path="url(#TextBounds)" d="M324.787 245.272C325.216 245.151 325.66 245.135 326.119 245.223C326.578 245.311 326.957 245.485 327.258 245.745C327.547 245.993 327.782 246.31 327.964 246.697C328.102 246.959 328.257 247.394 328.428 248.003L324.001 249.249C324.192 249.856 324.475 250.307 324.85 250.601C325.225 250.896 325.696 250.963 326.264 250.803C326.794 250.654 327.168 250.36 327.386 249.922C327.509 249.668 327.571 249.397 327.571 249.109L328.569 248.828C328.605 249.057 328.587 249.329 328.516 249.643C328.444 249.958 328.34 250.227 328.204 250.452C327.981 250.84 327.656 251.15 327.231 251.383C327.003 251.512 326.735 251.62 326.427 251.707C325.675 251.918 324.961 251.824 324.284 251.424C323.607 251.024 323.131 250.331 322.853 249.346C322.58 248.376 322.622 247.514 322.978 246.761C323.334 246.007 323.937 245.511 324.787 245.272ZM327.158 247.49C326.993 247.062 326.798 246.737 326.574 246.516C326.158 246.106 325.625 245.992 324.974 246.175C324.508 246.306 324.164 246.584 323.943 247.01C323.722 247.435 323.675 247.91 323.802 248.434L327.158 247.49Z"/>
<path clip-path="url(#TextBounds)" d="M210.742 295.376C210.924 296.023 211.214 296.526 211.611 296.885C212.008 297.244 212.51 297.338 213.115 297.168C213.585 297.036 213.915 296.725 214.104 296.236C214.293 295.746 214.281 295.124 214.068 294.368C213.854 293.605 213.539 293.083 213.123 292.805C212.708 292.526 212.271 292.451 211.812 292.58C211.301 292.724 210.941 293.036 210.734 293.516C210.526 293.997 210.529 294.617 210.742 295.376ZM211.371 291.748C211.834 291.618 212.249 291.607 212.616 291.715C212.828 291.777 213.089 291.917 213.397 292.134L212.539 289.083L213.515 288.808L215.853 297.122L214.94 297.379L214.703 296.539C214.571 296.978 214.367 297.325 214.09 297.582C213.813 297.838 213.466 298.025 213.048 298.142C212.375 298.332 211.713 298.213 211.061 297.785C210.409 297.358 209.951 296.674 209.687 295.734C209.439 294.854 209.449 294.029 209.717 293.257C209.985 292.486 210.537 291.983 211.371 291.748Z"/>
<path clip-path="url(#TextBounds)" d="M218.132 289.816C218.561 289.696 219.005 289.679 219.463 289.767C219.922 289.855 220.302 290.029 220.603 290.29C220.891 290.537 221.127 290.855 221.309 291.242C221.447 291.503 221.602 291.938 221.773 292.547L217.346 293.793C217.537 294.401 217.82 294.852 218.195 295.146C218.57 295.44 219.041 295.507 219.609 295.348C220.139 295.198 220.513 294.905 220.73 294.466C220.854 294.212 220.916 293.941 220.916 293.653L221.914 293.372C221.95 293.601 221.932 293.873 221.86 294.188C221.789 294.502 221.685 294.772 221.549 294.997C221.325 295.384 221.001 295.694 220.576 295.928C220.348 296.057 220.08 296.165 219.772 296.251C219.02 296.463 218.305 296.369 217.629 295.968C216.952 295.568 216.475 294.876 216.198 293.89C215.925 292.92 215.967 292.058 216.323 291.305C216.679 290.551 217.282 290.055 218.132 289.816ZM220.503 292.034C220.338 291.606 220.143 291.281 219.919 291.061C219.503 290.65 218.97 290.536 218.319 290.719C217.853 290.85 217.509 291.129 217.288 291.554C217.067 291.979 217.02 292.454 217.147 292.978L220.503 292.034Z"/>
<path clip-path="url(#TextBounds)" d="M222.079 288.852L223.083 288.57L223.324 289.427C223.481 289.062 223.639 288.785 223.796 288.594C224.066 288.271 224.414 288.049 224.839 287.93C225.32 287.794 225.741 287.804 226.1 287.958C226.304 288.047 226.51 288.204 226.72 288.429C226.855 288.042 227.052 287.728 227.313 287.486C227.574 287.245 227.894 287.07 228.274 286.963C229.086 286.735 229.721 286.873 230.179 287.377C230.426 287.648 230.625 288.051 230.775 288.585L231.906 292.607L230.851 292.903L229.671 288.707C229.558 288.304 229.379 288.056 229.136 287.963C228.892 287.869 228.626 287.863 228.336 287.944C227.938 288.056 227.632 288.286 227.42 288.634C227.207 288.982 227.189 289.468 227.364 290.092L228.353 293.606L227.32 293.897L226.211 289.954C226.096 289.544 225.963 289.259 225.812 289.098C225.579 288.86 225.252 288.8 224.831 288.918C224.447 289.026 224.14 289.273 223.91 289.658C223.679 290.043 223.673 290.625 223.892 291.404L224.794 294.607L223.778 294.893L222.079 288.852Z"/>
<path clip-path="url(#TextBounds)" d="M233.727 290.36C233.81 290.653 233.982 290.854 234.244 290.963C234.506 291.072 234.783 291.085 235.077 291.003C235.434 290.902 235.757 290.722 236.045 290.463C236.531 290.029 236.687 289.501 236.512 288.877L236.281 288.059C236.18 288.173 236.038 288.283 235.858 288.391C235.677 288.499 235.496 288.59 235.314 288.666L234.721 288.917C234.367 289.07 234.112 289.225 233.957 289.382C233.695 289.646 233.618 289.972 233.727 290.36ZM235.609 287.615C235.833 287.519 235.962 287.377 235.994 287.19C236.014 287.087 236 286.951 235.953 286.782C235.855 286.436 235.662 286.219 235.371 286.133C235.081 286.046 234.707 286.067 234.248 286.196C233.718 286.345 233.382 286.594 233.24 286.942C233.161 287.135 233.146 287.393 233.196 287.715L232.249 287.982C232.058 287.232 232.154 286.646 232.536 286.224C232.919 285.802 233.416 285.505 234.029 285.332C234.74 285.132 235.355 285.105 235.875 285.251C236.391 285.398 236.73 285.758 236.891 286.329L237.87 289.809C237.899 289.915 237.945 289.993 238.006 290.045C238.067 290.097 238.167 290.103 238.306 290.064C238.351 290.051 238.401 290.034 238.456 290.012C238.511 289.991 238.569 289.966 238.63 289.936L238.841 290.686C238.695 290.776 238.583 290.838 238.503 290.873C238.424 290.907 238.313 290.945 238.17 290.985C237.82 291.083 237.531 291.03 237.304 290.827C237.184 290.718 237.073 290.549 236.972 290.317C236.841 290.646 236.61 290.965 236.279 291.273C235.948 291.581 235.549 291.801 235.082 291.932C234.522 292.09 234.016 292.049 233.565 291.808C233.114 291.568 232.817 291.192 232.673 290.681C232.515 290.12 232.568 289.637 232.831 289.23C233.094 288.823 233.499 288.504 234.047 288.273L235.609 287.615Z"/>
<path clip-path="url(#TextBounds)" d="M238.126 284.338L239.091 284.067L239.332 284.924C239.518 284.49 239.749 284.151 240.026 283.907C240.302 283.663 240.636 283.486 241.027 283.376C241.884 283.135 242.547 283.271 243.016 283.784C243.274 284.065 243.488 284.51 243.66 285.119L244.75 288.994L243.717 289.284L242.646 285.477C242.543 285.108 242.405 284.827 242.232 284.632C241.946 284.307 241.566 284.211 241.092 284.344C240.851 284.412 240.661 284.491 240.52 284.584C240.265 284.745 240.067 284.979 239.927 285.286C239.814 285.533 239.761 285.77 239.77 285.997C239.779 286.224 239.84 286.534 239.951 286.929L240.841 290.093L239.825 290.379L238.126 284.338Z"/>
<path clip-path="url(#TextBounds)" d="M246.063 285.441C246.245 286.088 246.535 286.591 246.932 286.95C247.329 287.309 247.83 287.403 248.436 287.233C248.906 287.101 249.235 286.79 249.424 286.3C249.613 285.811 249.601 285.188 249.389 284.433C249.174 283.669 248.859 283.148 248.444 282.869C248.029 282.59 247.592 282.516 247.133 282.645C246.622 282.788 246.262 283.101 246.054 283.581C245.846 284.061 245.849 284.681 246.063 285.441ZM246.692 281.813C247.155 281.683 247.569 281.672 247.937 281.779C248.149 281.841 248.409 281.981 248.718 282.199L247.86 279.147L248.835 278.873L251.174 287.187L250.26 287.444L250.024 286.603C249.892 287.042 249.687 287.39 249.41 287.646C249.133 287.903 248.786 288.09 248.369 288.207C247.696 288.396 247.033 288.277 246.382 287.85C245.73 287.423 245.272 286.739 245.007 285.799C244.76 284.919 244.77 284.093 245.038 283.322C245.306 282.551 245.857 282.048 246.692 281.813Z"/>
<path clip-path="url(#TextBounds)" d="M253.453 279.881C253.881 279.76 254.325 279.744 254.784 279.832C255.243 279.92 255.623 280.094 255.923 280.355C256.212 280.602 256.447 280.919 256.629 281.306C256.768 281.568 256.923 282.003 257.094 282.612L252.666 283.858C252.857 284.465 253.14 284.916 253.515 285.21C253.89 285.505 254.362 285.572 254.929 285.412C255.46 285.263 255.834 284.969 256.051 284.531C256.174 284.277 256.236 284.006 256.236 283.718L257.235 283.437C257.271 283.666 257.253 283.938 257.181 284.252C257.109 284.567 257.005 284.836 256.87 285.061C256.646 285.449 256.322 285.759 255.896 285.992C255.669 286.121 255.401 286.229 255.092 286.316C254.34 286.527 253.626 286.433 252.949 286.033C252.273 285.633 251.796 284.94 251.519 283.955C251.246 282.985 251.288 282.123 251.644 281.37C252 280.616 252.603 280.12 253.453 279.881ZM255.824 282.099C255.658 281.671 255.464 281.346 255.239 281.125C254.823 280.715 254.29 280.601 253.64 280.784C253.173 280.915 252.83 281.193 252.609 281.619C252.387 282.044 252.34 282.519 252.467 283.043L255.824 282.099ZM253.98 277.255L252.933 279.309L252.154 279.528L252.728 277.607L253.98 277.255Z"/>
<path clip-path="url(#TextBounds)" d="M259.877 278.074C260.306 277.953 260.75 277.937 261.209 278.025C261.668 278.113 262.047 278.287 262.348 278.547C262.637 278.795 262.872 279.112 263.054 279.499C263.192 279.761 263.347 280.196 263.518 280.805L259.091 282.05C259.282 282.658 259.565 283.109 259.94 283.403C260.315 283.697 260.786 283.765 261.354 283.605C261.884 283.456 262.258 283.162 262.476 282.723C262.599 282.47 262.661 282.199 262.661 281.911L263.659 281.63C263.695 281.859 263.677 282.131 263.605 282.445C263.534 282.76 263.43 283.029 263.294 283.254C263.071 283.642 262.746 283.952 262.321 284.185C262.093 284.314 261.825 284.422 261.517 284.509C260.765 284.72 260.051 284.626 259.374 284.226C258.697 283.826 258.22 283.133 257.943 282.148C257.67 281.178 257.712 280.316 258.068 279.562C258.424 278.809 259.027 278.313 259.877 278.074ZM262.248 280.292C262.083 279.864 261.888 279.539 261.664 279.318C261.248 278.907 260.715 278.794 260.064 278.977C259.598 279.108 259.254 279.386 259.033 279.811C258.812 280.237 258.765 280.712 258.892 281.236L262.248 280.292Z"/>
<path clip-path="url(#TextBounds)" d="M273.172 280.999L272.823 279.758L274.002 279.427L274.351 280.667L273.172 280.999ZM268.976 280.84L270.149 280.51L270.498 281.751L269.325 282.081L268.976 280.84ZM277.024 279.915L276.675 278.674L277.848 278.344L278.198 279.585L277.024 279.915Z"/>
<path clip-path="url(#TextBounds)" d="M280.181 277.7L281.36 277.369L281.706 278.598L280.527 278.93L280.181 277.7Z"/>
<path clip-path="url(#TextBounds)" d="M283.391 276.798L284.569 276.466L284.915 277.696L283.736 278.027L283.391 276.798Z"/>
</g>
<g fill="url(#LinearGradient_3)" opacity="1" stroke="none"/>
<g fill="url(#LinearGradient_4)" opacity="1" stroke="none">
<path clip-path="url(#TextBounds_3)" d="M362.655 117.483L362.655 118.509L359.755 118.509L359.755 126.091L358.571 126.091L358.571 118.509L355.671 118.509L355.671 117.483L362.655 117.483Z"/>
<path clip-path="url(#TextBounds_3)" d="M364.864 119.675C365.309 119.675 365.741 119.779 366.159 119.988C366.577 120.197 366.895 120.468 367.114 120.8C367.325 121.116 367.466 121.485 367.536 121.907C367.599 122.196 367.63 122.657 367.63 123.29L363.03 123.29C363.05 123.927 363.2 124.437 363.481 124.822C363.763 125.207 364.198 125.399 364.788 125.399C365.339 125.399 365.778 125.218 366.106 124.854C366.294 124.643 366.427 124.399 366.505 124.122L367.542 124.122C367.515 124.352 367.424 124.609 367.269 124.892C367.115 125.176 366.942 125.407 366.751 125.587C366.431 125.899 366.034 126.11 365.561 126.22C365.308 126.282 365.02 126.313 364.7 126.313C363.919 126.313 363.257 126.029 362.714 125.461C362.171 124.892 361.899 124.097 361.899 123.073C361.899 122.065 362.173 121.247 362.72 120.618C363.267 119.989 363.981 119.675 364.864 119.675ZM366.546 122.452C366.503 121.995 366.403 121.63 366.247 121.356C365.958 120.849 365.476 120.595 364.8 120.595C364.315 120.595 363.909 120.769 363.581 121.119C363.253 121.469 363.079 121.913 363.059 122.452L366.546 122.452Z"/>
<path clip-path="url(#TextBounds_3)" d="M368.327 119.815L369.692 119.815L371.134 122.024L372.593 119.815L373.876 119.845L371.761 122.874L373.97 126.091L372.622 126.091L371.063 123.735L369.552 126.091L368.216 126.091L370.425 122.874L368.327 119.815Z"/>
<path clip-path="url(#TextBounds_3)" d="M375.136 118.063L376.202 118.063L376.202 119.815L377.204 119.815L377.204 120.677L376.202 120.677L376.202 124.772C376.202 124.991 376.276 125.138 376.425 125.212C376.507 125.255 376.643 125.276 376.835 125.276C376.886 125.276 376.94 125.275 376.999 125.273C377.058 125.271 377.126 125.267 377.204 125.259L377.204 126.091C377.083 126.126 376.957 126.151 376.826 126.167C376.695 126.183 376.554 126.19 376.401 126.19C375.909 126.19 375.575 126.064 375.399 125.812C375.224 125.56 375.136 125.233 375.136 124.831L375.136 120.677L374.286 120.677L374.286 119.815L375.136 119.815L375.136 118.063Z"/>
<path clip-path="url(#TextBounds_3)" d="M380.872 119.675C381.317 119.675 381.749 119.779 382.167 119.988C382.585 120.197 382.903 120.468 383.122 120.8C383.333 121.116 383.474 121.485 383.544 121.907C383.606 122.196 383.638 122.657 383.638 123.29L379.038 123.29C379.058 123.927 379.208 124.437 379.489 124.822C379.77 125.207 380.206 125.399 380.796 125.399C381.347 125.399 381.786 125.218 382.114 124.854C382.302 124.643 382.434 124.399 382.513 124.122L383.55 124.122C383.522 124.352 383.432 124.609 383.277 124.892C383.123 125.176 382.95 125.407 382.759 125.587C382.438 125.899 382.042 126.11 381.569 126.22C381.315 126.282 381.028 126.313 380.708 126.313C379.927 126.313 379.265 126.029 378.722 125.461C378.179 124.892 377.907 124.097 377.907 123.073C377.907 122.065 378.181 121.247 378.727 120.618C379.274 119.989 379.989 119.675 380.872 119.675ZM382.554 122.452C382.511 121.995 382.411 121.63 382.255 121.356C381.966 120.849 381.483 120.595 380.808 120.595C380.323 120.595 379.917 120.769 379.589 121.119C379.261 121.469 379.087 121.913 379.067 122.452L382.554 122.452Z"/>
</g>
</g>
</g>
</svg>
