<?xml version="1.0" encoding="UTF-8" standalone="no"?>
<!DOCTYPE svg PUBLIC "-//W3C//DTD SVG 1.1//EN" "http://www.w3.org/Graphics/SVG/1.1/DTD/svg11.dtd">
<!-- Created with Vectornator (http://vectornator.io/) -->
<svg height="100%" stroke-miterlimit="10" style="fill-rule:nonzero;clip-rule:evenodd;stroke-linecap:round;stroke-linejoin:round;" version="1.1" viewBox="0 0 2015 1626" width="100%" xml:space="preserve" xmlns="http://www.w3.org/2000/svg" xmlns:vectornator="http://vectornator.io" xmlns:xlink="http://www.w3.org/1999/xlink">
<defs/>
<g id="Calque-1" vectornator:layerName="Calque 1">
<path d="M555.175 135.203C539.055 137.554 527.133 139.737 519.409 141.752C511.685 143.767 504.128 146.286 496.74 149.308C493.046 150.82 489.352 152.331 485.658 153.842C487.505 155.186 489.352 156.529 491.199 157.872C494.893 160.559 497.916 163.581 500.266 166.94C502.617 170.298 508.83 170.634 518.905 167.947C528.98 165.261 539.559 163.078 550.641 161.398C561.724 159.719 572.638 158.88 583.385 158.88C594.132 158.88 606.726 160.055 621.166 162.406C635.607 164.757 647.529 167.443 656.933 170.466C666.336 173.488 676.243 177.351 686.654 182.052C697.065 186.754 708.147 192.799 719.901 200.187C731.656 207.576 741.395 214.628 749.119 221.345C756.843 228.061 768.429 239.144 783.878 254.592C799.326 270.041 811.752 283.306 821.155 294.388C830.558 305.471 840.13 317.897 849.869 331.666C859.608 345.435 869.179 361.387 878.583 379.522C887.986 397.657 895.038 412.77 899.74 424.86C904.442 436.95 908.64 450.215 912.334 464.656C916.028 479.097 918.715 494.713 920.394 511.505C922.073 528.296 922.913 544.248 922.913 559.361C922.913 574.473 929.293 582.533 942.055 583.541C948.436 584.045 954.817 584.548 961.198 585.052C961.533 581.526 961.869 578 962.205 574.473C962.877 567.421 963.213 552.98 963.213 531.151C963.213 509.322 962.373 492.698 960.694 481.28C959.015 469.861 956.664 458.779 953.641 448.032C950.619 437.286 945.917 423.852 939.536 407.732C933.156 391.612 926.439 376.836 919.386 363.402C912.334 349.969 903.602 336.032 893.191 321.591C882.781 307.15 877.239 298.922 876.568 296.907C875.896 294.892 872.202 289.687 865.485 281.291C858.768 272.895 850.541 263.492 840.801 253.081C831.062 242.67 820.148 232.259 808.058 221.848C795.968 211.438 788.915 205.896 786.9 205.225C784.885 204.553 779.68 201.027 771.284 194.646C762.888 188.265 751.806 181.213 738.036 173.488C724.267 165.764 712.345 159.719 702.27 155.353C692.195 150.988 679.769 146.622 664.993 142.256C650.216 137.89 637.79 135.036 627.715 133.692C617.64 132.349 607.061 131.677 595.979 131.677C584.896 131.677 571.295 132.853 555.175 135.203ZM430.245 183.563C417.483 192.631 406.569 201.866 397.501 211.27C388.434 220.673 380.374 231.588 373.321 244.013C366.269 256.439 360.896 269.369 357.201 282.802C353.507 296.236 351.156 311.516 350.149 328.643C349.141 345.771 349.477 362.731 351.156 379.522C352.836 396.314 356.194 413.945 361.231 432.416C366.269 450.887 372.986 469.358 381.381 487.828C389.777 506.299 398.845 523.427 408.584 539.211C418.323 554.995 428.062 569.1 437.801 581.526C447.541 593.952 458.959 606.546 472.056 619.307C485.154 632.069 497.244 642.312 508.326 650.036C519.409 657.76 534.186 665.82 552.656 674.216C571.127 682.612 588.758 689.161 605.55 693.862C622.342 698.564 638.462 702.09 653.91 704.441C669.358 706.792 686.99 707.967 706.804 707.967C716.711 707.967 726.618 707.967 736.525 707.967C736.525 707.463 736.525 706.96 736.525 706.456C736.525 705.448 726.45 702.93 706.3 698.9C686.15 694.87 668.519 690.336 653.406 685.298C638.294 680.261 621.67 673.544 603.535 665.148C585.4 656.753 570.12 648.693 557.694 640.968C545.268 633.244 534.521 625.856 525.454 618.803C516.386 611.751 506.143 602.348 494.725 590.593C483.307 578.839 471.553 564.566 459.463 547.775C447.373 530.983 436.794 514.695 427.726 498.911C418.659 483.127 410.935 467.678 404.554 452.566C398.173 437.453 392.8 422.509 388.434 407.732C384.068 392.956 380.878 379.522 378.863 367.432C376.848 355.342 376.008 342.748 376.344 329.651C376.68 316.553 378.863 302.616 382.893 287.84C386.923 273.063 392.128 260.301 398.509 249.555C404.89 238.808 412.782 229.237 422.185 220.841C431.588 212.445 442.671 204.553 455.433 197.165C468.194 189.776 474.407 185.411 474.071 184.067C473.736 182.724 471.721 180.709 468.026 178.022C464.332 175.336 460.302 173.321 455.936 171.977C451.571 170.634 443.007 174.496 430.245 183.563ZM1027.69 189.105C1027.69 190.448 1030.88 193.471 1037.26 198.172C1043.64 202.874 1050.36 209.087 1057.41 216.811C1064.47 224.535 1073.2 237.801 1083.61 256.607C1094.02 275.414 1101.07 290.023 1104.77 300.433C1108.46 310.844 1111.15 323.438 1112.83 338.215C1114.51 352.991 1116.69 365.921 1119.38 377.003C1122.06 388.086 1124.92 394.971 1127.94 397.657C1130.96 400.344 1133.98 401.855 1137.01 402.191C1140.03 402.527 1142.55 402.359 1144.56 401.687C1146.58 401.016 1149.1 398.833 1152.12 395.138C1155.14 391.444 1155.98 382.545 1154.64 368.44C1153.29 354.335 1150.94 341.237 1147.59 329.147C1144.23 317.057 1138.18 301.441 1129.45 282.298C1120.72 263.156 1113.83 249.891 1108.8 242.502C1103.76 235.114 1098.22 228.733 1092.17 223.36C1086.13 217.986 1075.05 210.766 1058.93 201.698C1042.81 192.631 1033.57 187.929 1031.22 187.593C1030.04 187.426 1028.87 187.258 1027.69 187.09C1027.69 187.761 1027.69 188.433 1027.69 189.105ZM1444.29 368.943C1436.57 370.623 1425.15 374.149 1410.04 379.522C1394.93 384.896 1379.98 389.597 1365.21 393.627C1350.43 397.657 1337.83 401.519 1327.42 405.213C1317.01 408.908 1307.95 412.602 1300.22 416.296C1292.5 419.99 1280.74 427.714 1264.96 439.468C1249.17 451.223 1240.78 458.107 1239.77 460.122C1238.76 462.137 1238.26 465.328 1238.26 469.693C1238.26 474.059 1239.1 478.425 1240.78 482.791C1242.46 487.157 1244.98 490.851 1248.34 493.873C1251.69 496.896 1255.56 499.247 1259.92 500.926C1264.29 502.605 1268.65 503.613 1273.02 503.948C1277.38 504.284 1282.76 503.781 1289.14 502.437C1295.52 501.094 1301.06 499.247 1305.76 496.896C1310.46 494.545 1317.52 490.011 1326.92 483.295C1336.32 476.578 1345.89 469.022 1355.63 460.626C1365.37 452.23 1370.75 447.193 1371.75 445.513C1372.76 443.834 1375.45 441.483 1379.81 438.461C1384.18 435.438 1386.87 433.088 1387.87 431.408C1388.88 429.729 1395.77 424.02 1408.53 414.281C1421.29 404.542 1431.03 398.161 1437.75 395.138C1444.46 392.116 1453.53 389.093 1464.95 386.071C1476.37 383.048 1485.43 381.369 1492.15 381.033C1498.87 380.698 1504.74 381.201 1509.78 382.545C1512.3 383.216 1514.82 383.888 1517.34 384.56C1517.34 383.384 1517.34 382.209 1517.34 381.033C1517.34 378.683 1513.14 375.996 1504.74 372.973C1496.35 369.951 1490.81 368.104 1488.12 367.432C1485.43 366.761 1479.39 366.425 1469.99 366.425C1460.58 366.425 1452.02 367.264 1444.29 368.943ZM480.116 460.122C469.202 461.466 458.287 462.809 447.373 464.152C448.044 466.671 448.716 469.19 449.388 471.708C450.731 476.746 453.921 484.134 458.959 493.873C463.996 503.613 476.254 507.139 495.733 504.452C515.211 501.766 533.178 500.422 549.634 500.422C566.09 500.422 584.393 501.933 604.543 504.956C624.693 507.978 642.156 511.673 656.933 516.038C671.709 520.404 684.975 524.938 696.729 529.64C708.483 534.341 721.077 540.386 734.51 547.775C747.943 555.163 762.216 564.063 777.329 574.473C784.885 579.679 792.441 584.884 799.998 590.09C800.166 589.586 800.333 589.082 800.501 588.578C800.669 588.075 800.837 587.571 801.005 587.067C801.173 587.739 801.341 588.411 801.509 589.082C801.845 590.426 802.684 591.433 804.028 592.105C804.699 592.441 805.371 592.776 806.043 593.112C801.341 587.571 796.639 582.03 791.938 576.488C782.534 565.406 771.116 553.652 757.683 541.226C744.249 528.8 732.831 519.565 723.428 513.52C714.024 507.475 709.323 504.116 709.323 503.445C709.323 502.773 702.942 499.079 690.18 492.362C677.418 485.646 664.153 479.936 650.384 475.235C636.615 470.533 622.846 466.671 609.076 463.648C595.307 460.626 584.057 458.611 575.325 457.603C566.593 456.596 554 456.092 537.544 456.092C521.088 456.092 501.946 457.436 480.116 460.122ZM1096.71 468.182C1088.98 468.854 1078.07 471.373 1063.96 475.738C1049.86 480.104 1042.97 483.966 1043.31 487.325C1043.64 490.683 1044.82 494.545 1046.84 498.911C1048.85 503.277 1052.54 508.482 1057.92 514.527C1063.29 520.572 1068.66 523.763 1074.04 524.098C1079.41 524.434 1084.95 524.098 1090.66 523.091C1096.37 522.083 1106.45 519.061 1120.89 514.023C1135.33 508.986 1146.91 506.803 1155.65 507.475C1164.38 508.146 1171.43 509.658 1176.8 512.008C1182.18 514.359 1187.89 517.886 1193.93 522.587C1199.98 527.289 1204.01 531.319 1206.02 534.677C1208.04 538.036 1208.87 543.577 1208.54 551.301C1208.2 559.025 1210.05 565.07 1214.08 569.436C1218.11 573.802 1221.13 576.656 1223.15 578C1225.16 579.343 1227.51 580.015 1230.2 580.015C1232.89 580.015 1235.24 579.175 1237.25 577.496C1239.27 575.817 1240.95 573.634 1242.29 570.947C1243.63 568.261 1243.97 563.391 1243.3 556.338C1242.63 549.286 1239.94 541.898 1235.24 534.173C1230.54 526.449 1223.99 518.389 1215.59 509.993C1207.2 501.598 1199.81 495.217 1193.43 490.851C1187.05 486.485 1180.83 482.959 1174.79 480.272C1168.74 477.586 1160.68 475.067 1150.61 472.716C1140.53 470.365 1130.96 468.854 1121.89 468.182C1112.83 467.511 1104.43 467.511 1096.71 468.182ZM325.969 499.918C315.558 504.956 304.643 511.505 293.225 519.565C281.807 527.625 272.739 535.013 266.023 541.73C259.306 548.446 253.429 554.995 248.391 561.376C243.354 567.757 237.141 577.664 229.753 591.097C222.364 604.531 216.655 618.132 212.625 631.901C208.595 645.67 206.244 659.775 205.573 674.216C204.901 688.657 205.741 702.762 208.091 716.531C210.442 730.3 213.801 742.894 218.166 754.312C222.532 765.731 228.073 776.981 234.79 788.063C241.507 799.146 250.406 811.068 261.489 823.83C272.571 836.591 283.654 847.674 294.736 857.077C305.819 866.481 319.924 876.556 337.051 887.302C354.179 898.049 371.138 907.452 387.93 915.512C404.722 923.572 423.193 931.128 443.343 938.181C463.493 945.233 480.62 950.103 494.725 952.79C508.83 955.476 524.95 957.156 543.085 957.827C561.22 958.499 572.974 949.935 578.348 932.136C581.034 923.236 583.721 914.337 586.408 905.437C575.997 903.254 565.586 901.071 555.175 898.888C534.353 894.523 513.7 889.653 493.214 884.28C472.728 878.906 455.097 873.365 440.32 867.656C425.543 861.947 412.11 856.07 400.02 850.025C387.93 843.98 375.84 837.095 363.75 829.371C351.66 821.647 340.242 813.419 329.495 804.687C318.748 795.956 310.353 788.567 304.308 782.522C298.263 776.477 293.729 771.272 290.706 766.906C287.684 762.54 285.669 760.189 284.661 759.853C283.654 759.518 279.624 753.641 272.571 742.222C265.519 730.804 260.481 720.225 257.459 710.486C254.436 700.747 252.757 691.008 252.421 681.268C252.086 671.529 252.589 662.966 253.933 655.577C255.276 648.189 257.459 640.633 260.481 632.908C263.504 625.184 268.206 616.788 274.586 607.721C280.967 598.653 287.516 590.929 294.233 584.548C300.949 578.168 309.849 571.451 320.931 564.398C332.014 557.346 342.425 551.637 352.164 547.271C357.033 545.088 361.903 542.905 366.773 540.722C364.422 535.853 362.071 530.983 359.72 526.113C355.018 516.374 351.66 508.482 349.645 502.437C347.63 496.392 345.783 493.202 344.104 492.866C342.425 492.53 336.38 494.881 325.969 499.918ZM1007.04 562.383C1006.03 570.108 1004.35 578.168 1002 586.563C1000.83 590.761 999.651 594.959 998.475 599.157C1006.03 598.318 1013.59 597.478 1021.14 596.638C1036.26 594.959 1049.86 594.288 1061.95 594.623C1074.04 594.959 1084.45 595.799 1093.18 597.142C1101.91 598.486 1111.32 601.508 1121.39 606.21C1131.47 610.911 1137.85 614.606 1140.53 617.292C1143.22 619.979 1147.08 626.192 1152.12 635.931C1157.16 645.67 1161.52 650.876 1165.22 651.547C1168.91 652.219 1171.93 651.715 1174.28 650.036C1176.63 648.357 1178.15 646.678 1178.82 644.998C1179.49 643.319 1179.66 641.136 1179.32 638.45C1178.99 635.763 1176.8 630.893 1172.77 623.841C1168.74 616.788 1163.71 609.736 1157.66 602.683C1151.62 595.631 1146.07 590.258 1141.04 586.563C1136 582.869 1128.61 579.007 1118.87 574.977C1109.13 570.947 1097.55 566.917 1084.11 562.887C1070.68 558.857 1054.73 555.835 1036.26 553.82C1017.79 551.805 1008.05 554.659 1007.04 562.383ZM1535.98 608.225C1514.82 610.24 1497.69 612.423 1484.59 614.773C1471.5 617.124 1453.7 621.322 1431.2 627.367C1408.7 633.412 1384.35 641.136 1358.15 650.54C1331.96 659.943 1312.82 667.499 1300.73 673.208C1288.64 678.918 1278.06 684.459 1268.99 689.832C1259.92 695.206 1241.95 707.631 1215.09 727.11C1188.22 746.588 1174.12 758.006 1172.77 761.365C1171.43 764.723 1170.93 768.249 1171.26 771.943C1171.6 775.638 1173.44 779.164 1176.8 782.522C1180.16 785.881 1184.53 787.56 1189.9 787.56C1195.27 787.56 1204.01 784.537 1216.1 778.492C1228.19 772.447 1238.93 766.066 1248.34 759.35C1257.74 752.633 1271.84 743.566 1290.65 732.147C1309.46 720.729 1325.58 711.661 1339.01 704.945C1352.44 698.228 1376.29 689.328 1410.54 678.246C1444.8 667.163 1473.18 659.271 1495.68 654.57C1518.18 649.868 1544.71 647.181 1575.27 646.51C1605.83 645.838 1626.65 646.006 1637.73 647.013C1648.82 648.021 1659.73 649.532 1670.48 651.547C1681.22 653.562 1693.15 656.417 1706.24 660.111C1719.34 663.805 1730.09 667.667 1738.48 671.697C1746.88 675.727 1755.44 680.597 1764.18 686.306C1772.91 692.015 1779.29 697.053 1783.32 701.418C1787.35 705.784 1792.55 707.799 1798.93 707.463C1805.31 707.128 1811.19 707.463 1816.57 708.471C1819.25 708.975 1821.94 709.478 1824.63 709.982C1824.63 709.143 1824.63 708.303 1824.63 707.463C1824.63 705.784 1823.28 702.93 1820.6 698.9C1817.91 694.87 1813.04 689.161 1805.99 681.772C1798.93 674.384 1791.88 668.171 1784.83 663.133C1777.78 658.096 1769.88 653.394 1761.15 649.028C1752.42 644.663 1740.67 639.625 1725.89 633.916C1711.11 628.207 1696 623.169 1680.55 618.803C1665.1 614.438 1650.33 611.247 1636.22 609.232C1622.12 607.217 1607.17 606.042 1591.39 605.706C1575.6 605.37 1557.13 606.21 1535.98 608.225ZM927.446 624.345C922.409 625.688 917.371 627.871 912.334 630.893C907.296 633.916 906.121 638.953 908.808 646.006C911.494 653.058 913.509 659.775 914.853 666.156C916.196 672.537 917.539 677.238 918.883 680.261C920.226 683.283 922.241 686.306 924.928 689.328C927.614 692.351 932.148 694.534 938.529 695.877C944.91 697.221 954.481 698.396 967.243 699.403C980.004 700.411 989.072 701.586 994.445 702.93C999.818 704.273 1005.86 706.792 1012.58 710.486C1019.3 714.18 1026.35 719.05 1033.74 725.095C1041.13 731.14 1046.5 734.834 1049.86 736.177C1053.22 737.521 1056.57 738.528 1059.93 739.2C1063.29 739.871 1072.53 740.039 1087.64 739.703C1102.75 739.368 1111.15 739.536 1112.83 740.207C1114.51 740.879 1116.86 743.23 1119.88 747.26C1122.9 751.29 1125.42 753.137 1127.44 752.801C1129.45 752.465 1131.47 751.29 1133.48 749.275C1135.5 747.26 1137.01 743.901 1138.01 739.2C1139.02 734.498 1138.35 728.957 1136 722.576C1133.65 716.195 1128.61 707.799 1120.89 697.388C1113.16 686.978 1106.28 679.253 1100.23 674.216C1094.19 669.178 1087.97 665.148 1081.59 662.126C1075.21 659.103 1064.63 655.577 1049.86 651.547C1035.08 647.517 1019.8 642.648 1004.02 636.938C988.232 631.229 976.478 627.535 968.754 625.856C961.03 624.177 953.473 623.169 946.085 622.833C938.697 622.498 932.484 623.001 927.446 624.345ZM818.133 687.817C797.983 701.922 780.519 715.356 765.743 728.117C750.966 740.879 734.006 758.006 714.864 779.5C695.721 800.993 679.937 819.968 667.511 836.423C655.086 852.879 644.843 867.32 636.783 879.746C628.723 892.172 621.838 903.926 616.129 915.008C610.42 926.091 603.871 941.875 596.483 962.361C589.094 982.847 582.042 1005.85 575.325 1031.37C568.608 1056.9 563.907 1077.22 561.22 1092.33C558.533 1107.44 556.854 1124.4 556.183 1143.21C555.511 1162.01 555.847 1180.82 557.19 1199.63C558.533 1218.43 560.884 1234.22 564.243 1246.98C567.601 1259.74 572.471 1272.34 578.851 1284.76C585.232 1297.19 593.292 1310.79 603.031 1325.56C612.771 1340.34 620.998 1350.75 627.715 1356.8C634.432 1362.84 643.835 1369.39 655.925 1376.44C668.015 1383.5 674.396 1386.85 675.068 1386.52C675.403 1386.35 675.739 1386.18 676.075 1386.01C671.206 1379.97 666.336 1373.92 661.466 1367.88C651.727 1355.79 644.171 1345.04 638.798 1335.64C633.424 1326.24 627.547 1312.64 621.166 1294.84C614.786 1277.04 609.58 1259.91 605.55 1243.45C601.52 1227 599.001 1215.24 597.994 1208.19C596.986 1201.14 596.651 1189.55 596.986 1173.43C597.322 1157.31 600.177 1133.64 605.55 1102.4C610.923 1071.17 615.625 1048.17 619.655 1033.39C623.685 1018.61 629.226 1001.99 636.279 983.518C643.331 965.048 651.895 946.241 661.97 927.098C672.045 907.956 678.762 895.698 682.12 890.325C685.478 884.951 687.493 882.265 688.165 882.265C688.837 882.265 690.684 879.41 693.706 873.701C696.729 867.992 699.416 863.962 701.766 861.611C704.117 859.26 705.293 857.581 705.293 856.573C705.293 855.566 706.132 854.391 707.811 853.047C709.491 851.704 710.33 850.528 710.33 849.521C710.33 848.513 710.834 847.842 711.841 847.506C712.849 847.17 713.353 846.498 713.353 845.491C713.353 844.483 714.36 843.14 716.375 841.461C718.39 839.782 719.398 838.438 719.398 837.431C719.398 836.423 719.901 835.752 720.909 835.416C721.916 835.08 722.42 834.408 722.42 833.401C722.42 832.393 723.092 831.554 724.435 830.882C725.778 830.211 726.45 829.371 726.45 828.363C726.45 827.356 726.954 826.684 727.961 826.348C728.969 826.013 730.648 823.998 732.999 820.303C735.35 816.609 737.029 814.594 738.036 814.258C739.044 813.923 740.387 812.243 742.066 809.221C743.746 806.198 750.63 798.474 762.72 786.048C774.81 773.623 784.381 764.387 791.434 758.342C798.486 752.297 803.188 748.771 805.539 747.763C807.89 746.756 810.576 744.741 813.599 741.718C816.621 738.696 818.636 737.185 819.644 737.185C820.651 737.185 821.323 736.681 821.659 735.673C821.995 734.666 822.666 734.162 823.674 734.162C824.681 734.162 825.857 733.323 827.2 731.643C828.543 729.964 829.719 729.125 830.726 729.125C831.734 729.125 832.909 728.285 834.253 726.606C835.596 724.927 836.771 724.087 837.779 724.087C838.786 724.087 839.962 723.248 841.305 721.568C842.648 719.889 847.014 716.699 854.403 711.997C861.791 707.296 865.485 704.105 865.485 702.426C865.485 700.747 863.47 694.87 859.44 684.795C855.41 674.72 853.059 669.178 852.388 668.171C851.716 667.163 850.876 666.66 849.869 666.66C848.861 666.66 838.283 673.712 818.133 687.817ZM853.899 748.771C848.19 753.137 842.648 758.678 837.275 765.395C834.588 768.753 831.902 772.111 829.215 775.47C838.618 775.302 848.022 775.134 857.425 774.966C876.232 774.63 888.658 774.798 894.703 775.47C900.748 776.141 909.311 777.653 920.394 780.003C931.476 782.354 944.574 786.216 959.686 791.59C974.799 796.963 986.217 801.497 993.941 805.191C1001.67 808.885 1011.24 814.426 1022.66 821.815C1034.07 829.203 1048.35 841.461 1065.47 858.588C1074.04 867.152 1082.6 875.716 1091.17 884.28C1091.84 879.242 1092.51 874.205 1093.18 869.167C1094.52 859.092 1091.33 849.017 1083.61 838.942C1075.88 828.867 1067.15 819.632 1057.41 811.236C1047.67 802.84 1036.42 795.284 1023.66 788.567C1010.9 781.851 995.453 774.966 977.318 767.913C959.183 760.861 942.895 755.656 928.454 752.297C914.013 748.939 899.404 746.42 884.628 744.741C869.851 743.062 859.608 744.405 853.899 748.771ZM1827.14 759.35C1832.85 770.768 1836.38 779.5 1837.72 785.545C1839.07 791.59 1839.74 797.971 1839.74 804.687C1839.74 811.404 1838.56 818.792 1836.21 826.852C1833.86 834.912 1829.33 845.659 1822.61 859.092C1815.89 872.526 1806.15 888.31 1793.39 906.445C1780.63 924.58 1769.04 939.021 1758.63 949.767C1748.22 960.514 1736.8 970.253 1724.38 978.985C1711.95 987.716 1698.35 995.608 1683.58 1002.66C1668.8 1009.71 1652.68 1015.76 1635.22 1020.8C1617.75 1025.83 1602.98 1029.53 1590.89 1031.88C1578.8 1034.23 1566.37 1036.08 1553.61 1037.42C1540.85 1038.76 1525.73 1039.43 1508.27 1039.43C1490.81 1039.43 1473.68 1038.6 1456.89 1036.92C1440.1 1035.24 1411.21 1031.21 1370.24 1024.83C1329.27 1018.45 1299.05 1013.07 1279.57 1008.71C1260.09 1004.34 1241.11 999.135 1222.64 993.09C1204.17 987.045 1194.6 984.358 1193.93 985.03C1193.26 985.701 1195.61 989.228 1200.98 995.608C1206.36 1001.99 1212.74 1007.36 1220.13 1011.73C1227.51 1016.09 1232.38 1018.45 1234.73 1018.78C1237.08 1019.12 1243.97 1021.8 1255.39 1026.84C1266.81 1031.88 1282.76 1038.09 1303.24 1045.48C1323.73 1052.87 1341.19 1058.75 1355.63 1063.11C1370.07 1067.48 1386.03 1071.67 1403.49 1075.7C1420.95 1079.73 1439.76 1083.09 1459.91 1085.78C1480.06 1088.47 1500.88 1089.98 1522.38 1090.31C1543.87 1090.65 1564.52 1089.64 1584.34 1087.29C1604.15 1084.94 1624.47 1080.91 1645.29 1075.2C1666.11 1069.49 1683.41 1063.45 1697.18 1057.07C1710.95 1050.69 1725.05 1042.46 1739.49 1032.38C1753.93 1022.31 1767.2 1011.22 1779.29 999.135C1791.38 987.045 1797.59 980.328 1797.93 978.985C1798.26 977.641 1799.94 975.794 1802.96 973.443C1805.99 971.093 1807.67 969.246 1808 967.902C1808.34 966.559 1809.51 965.216 1811.53 963.872C1813.54 962.529 1814.55 961.353 1814.55 960.346C1814.55 959.338 1819.92 951.95 1830.67 938.181C1841.42 924.412 1849.81 911.818 1855.86 900.4C1861.9 888.981 1865.93 880.082 1867.95 873.701C1869.96 867.32 1871.47 860.268 1872.48 852.543C1873.49 844.819 1873.66 835.752 1872.99 825.341C1872.31 814.93 1870.97 805.359 1868.96 796.627C1866.94 787.896 1863.41 777.485 1858.38 765.395C1853.34 753.305 1847.8 746.42 1841.75 744.741C1835.71 743.062 1830.33 742.222 1825.63 742.222C1823.28 742.222 1820.93 742.222 1818.58 742.222C1821.43 747.931 1824.29 753.641 1827.14 759.35ZM786.9 813.251C780.855 819.632 775.986 825.341 772.291 830.378C768.597 835.416 766.582 838.774 766.246 840.453C766.078 841.293 765.911 842.133 765.743 842.972C783.542 844.316 801.341 845.659 819.14 847.002C854.738 849.689 879.086 852.04 892.184 854.055C905.281 856.07 917.371 858.421 928.454 861.107C939.536 863.794 952.466 867.992 967.243 873.701C982.019 879.41 992.262 883.944 997.971 887.302C1003.68 890.661 1011.91 897.209 1022.66 906.948C1033.4 916.688 1042.13 925.755 1048.85 934.151C1055.57 942.547 1059.43 946.577 1060.44 946.241C1061.44 945.905 1063.12 943.554 1065.47 939.188C1067.82 934.823 1069.67 930.289 1071.02 925.587C1072.36 920.886 1072.02 917.191 1070.01 914.505C1067.99 911.818 1059.93 903.758 1045.83 890.325C1031.72 876.891 1021.98 867.992 1016.61 863.626C1011.24 859.26 1004.69 854.726 996.964 850.025C989.24 845.323 981.348 841.293 973.288 837.935C965.228 834.576 955.321 831.218 943.566 827.86C931.812 824.501 915.692 820.975 895.206 817.281C874.721 813.587 853.059 810.396 830.223 807.71C807.386 805.023 792.945 806.87 786.9 813.251ZM1155.65 836.423C1144.23 838.774 1137.85 844.819 1136.5 854.558C1135.16 864.298 1132.47 878.235 1128.44 896.37C1124.41 914.505 1119.21 932.808 1112.83 951.278C1106.45 969.749 1093.35 998.463 1073.53 1037.42C1053.72 1076.38 1037.77 1105.09 1025.68 1123.56C1013.59 1142.03 995.453 1162.69 971.273 1185.52C947.093 1208.36 925.096 1227 905.281 1241.44C885.467 1255.88 870.187 1266.12 859.44 1272.17C848.693 1278.21 833.245 1285.94 813.095 1295.34C792.945 1304.74 768.933 1314.15 741.059 1323.55C727.122 1328.25 713.185 1332.95 699.248 1337.65C703.613 1339.17 707.979 1340.68 712.345 1342.19C721.077 1345.21 730.312 1347.56 740.051 1349.24C749.791 1350.92 764.231 1352.77 783.374 1354.78C802.516 1356.8 817.965 1357.3 829.719 1356.29C841.473 1355.29 852.22 1352.77 861.959 1348.74C871.698 1344.71 885.635 1336.98 903.77 1325.56C921.905 1314.15 937.018 1303.57 949.108 1293.83C961.198 1284.09 967.746 1279.22 968.754 1279.22C969.761 1279.22 976.982 1272.5 990.415 1259.07C1003.85 1245.64 1010.57 1238.42 1010.57 1237.41C1010.57 1236.4 1017.28 1227.5 1030.72 1210.71C1044.15 1193.92 1056.41 1177.13 1067.49 1160.33C1078.57 1143.54 1088.65 1126.58 1097.71 1109.46C1106.78 1092.33 1114.84 1075.54 1121.89 1059.08C1128.95 1042.63 1134.49 1028.86 1138.52 1017.77C1142.55 1006.69 1148.09 988.22 1155.14 962.361C1162.19 936.502 1167.06 914.169 1169.75 895.362C1172.44 876.556 1173.61 861.443 1173.28 850.025C1173.11 844.316 1172.94 838.606 1172.77 832.897C1167.06 834.073 1161.35 835.248 1155.65 836.423ZM1389.39 864.13C1390.73 864.801 1392.58 864.969 1394.93 864.633C1396.1 864.466 1397.28 864.298 1398.45 864.13C1396.61 863.962 1394.76 863.794 1392.91 863.626C1391.06 863.458 1389.22 863.29 1387.37 863.122C1388.04 863.458 1388.71 863.794 1389.39 864.13ZM1401.98 865.137C1402.31 866.481 1416.92 869.671 1445.81 874.708C1474.69 879.746 1496.01 884.448 1509.78 888.813C1523.55 893.179 1545.88 902.583 1576.78 917.023C1607.68 931.464 1630.85 943.554 1646.3 953.293C1661.75 963.033 1670.81 967.398 1673.5 966.391C1676.19 965.383 1677.53 964.544 1677.53 963.872C1677.53 963.536 1677.53 963.201 1677.53 962.865C1678.03 962.865 1678.54 962.865 1679.04 962.865C1679.55 962.865 1680.05 962.865 1680.55 962.865C1680.55 962.529 1680.55 962.193 1680.55 961.857C1680.55 961.186 1682.74 959.506 1687.1 956.82C1691.47 954.133 1693.65 952.454 1693.65 951.782C1693.65 951.111 1691.13 949.263 1686.09 946.241C1681.06 943.218 1669.64 937.006 1651.84 927.602C1634.04 918.199 1614.23 909.299 1592.4 900.903C1570.57 892.508 1542.36 884.783 1507.77 877.731C1473.18 870.678 1446.81 866.481 1428.68 865.137C1419.61 864.466 1410.54 863.794 1401.48 863.122C1401.64 863.794 1401.81 864.466 1401.98 865.137ZM738.036 901.911C726.282 902.918 715.536 912.154 705.796 929.617C696.057 947.081 688.837 962.697 684.135 976.466C679.433 990.235 676.411 1000.98 675.068 1008.71C674.396 1012.57 673.724 1016.43 673.053 1020.29C678.09 1018.95 683.128 1017.61 688.165 1016.26C698.24 1013.58 709.491 1011.22 721.916 1009.21C734.342 1007.19 745.257 1006.19 754.66 1006.19C764.063 1006.19 772.795 1006.86 780.855 1008.2C788.915 1009.55 809.569 1015.42 842.816 1025.83C876.064 1036.24 897.557 1043.63 907.296 1048C917.036 1052.36 924.592 1056.39 929.965 1060.09C935.338 1063.78 940.04 1067.64 944.07 1071.67C948.1 1075.7 954.145 1083.93 962.205 1096.36C970.265 1108.78 974.799 1115 975.806 1115C976.814 1115 980.844 1111.47 987.896 1104.42C994.949 1097.37 999.986 1091.66 1003.01 1087.29C1006.03 1082.93 1008.72 1077.89 1011.07 1072.18C1013.42 1066.47 1015.94 1058.41 1018.63 1048C1021.31 1037.59 1017.28 1025.67 1006.54 1012.23C995.788 998.799 985.546 987.381 975.806 977.977C966.067 968.574 953.473 958.835 938.025 948.76C922.577 938.685 905.953 930.121 888.154 923.068C870.355 916.016 853.731 910.978 838.283 907.956C822.834 904.933 805.203 902.918 785.389 901.911C765.575 900.903 749.791 900.903 738.036 901.911ZM1764.68 1054.55C1754.94 1061.94 1751.58 1070.33 1754.6 1079.73C1757.63 1089.14 1759.31 1097.7 1759.64 1105.43C1759.98 1113.15 1758.97 1121.55 1756.62 1130.61C1754.27 1139.68 1750.41 1148.41 1745.03 1156.81C1739.66 1165.2 1732.77 1173.77 1724.38 1182.5C1715.98 1191.23 1706.08 1199.8 1694.66 1208.19C1683.24 1216.59 1671.82 1223.47 1660.4 1228.84C1648.98 1234.22 1636.73 1238.75 1623.63 1242.45C1610.53 1246.14 1593.4 1249.33 1572.25 1252.02C1551.09 1254.7 1528.25 1256.38 1503.74 1257.05C1479.22 1257.73 1458.06 1257.05 1440.26 1255.04C1422.46 1253.02 1406.51 1250.34 1392.41 1246.98C1378.3 1243.62 1360.17 1238.08 1338 1230.36C1315.84 1222.63 1293 1213.4 1269.49 1202.65C1245.98 1191.9 1229.53 1183.68 1220.13 1177.97C1210.72 1172.26 1202.66 1166.72 1195.95 1161.34C1189.23 1155.97 1185.37 1153.28 1184.36 1153.28C1183.35 1153.28 1175.96 1147.24 1162.19 1135.15C1148.42 1123.06 1140.7 1117.85 1139.02 1119.53C1137.34 1121.21 1132.3 1130.78 1123.91 1148.24C1115.51 1165.71 1117.86 1181.83 1130.96 1196.6C1144.06 1211.38 1156.32 1223.47 1167.74 1232.87C1179.15 1242.28 1190.07 1250.34 1200.48 1257.05C1210.89 1263.77 1221.8 1270.15 1233.22 1276.2C1244.64 1282.24 1261.1 1289.63 1282.59 1298.36C1304.08 1307.09 1325.24 1314.48 1346.06 1320.53C1366.88 1326.57 1388.38 1331.11 1410.54 1334.13C1432.71 1337.15 1456.55 1339 1482.08 1339.67C1507.6 1340.34 1530.44 1339.67 1550.59 1337.65C1570.74 1335.64 1592.06 1331.44 1614.56 1325.06C1637.06 1318.68 1659.73 1310.45 1682.57 1300.38C1705.4 1290.3 1722.7 1280.9 1734.45 1272.17C1746.21 1263.44 1755.95 1254.7 1763.67 1245.97C1771.4 1237.24 1778.45 1227 1784.83 1215.24C1791.21 1203.49 1795.58 1193.75 1797.93 1186.03C1800.28 1178.3 1802.12 1169.57 1803.47 1159.83C1804.81 1150.09 1805.31 1140.18 1804.98 1130.11C1804.64 1120.03 1803.3 1108.28 1800.95 1094.85C1798.6 1081.41 1795.74 1070.5 1792.39 1062.1C1789.03 1053.71 1787.01 1049.51 1786.34 1049.51C1785.67 1049.51 1784.83 1048.5 1783.82 1046.49C1782.81 1044.47 1781.81 1043.46 1780.8 1043.46C1779.79 1043.46 1774.42 1047.16 1764.68 1054.55ZM660.963 1106.43C650.216 1106.77 644.507 1107.27 643.835 1107.94C643.163 1108.62 641.148 1114.33 637.79 1125.07C634.432 1135.82 632.585 1146.4 632.249 1156.81C631.913 1167.22 633.088 1178.3 635.775 1190.06C638.462 1201.81 648.873 1211.89 667.008 1220.28C685.143 1228.68 702.27 1235.06 718.39 1239.42C734.51 1243.79 753.988 1246.98 776.825 1248.99C799.662 1251.01 818.301 1247.99 832.741 1239.93C847.182 1231.87 861.959 1222.3 877.071 1211.21C884.628 1205.67 892.184 1200.13 899.74 1194.59C897.725 1192.41 895.71 1190.22 893.695 1188.04C889.665 1183.68 881.941 1176.79 870.523 1167.39C859.104 1157.98 849.029 1150.6 840.298 1145.22C831.566 1139.85 822.331 1134.98 812.591 1130.61C802.852 1126.25 793.113 1122.55 783.374 1119.53C773.635 1116.51 763.224 1113.99 752.141 1111.97C741.059 1109.96 725.778 1108.45 706.3 1107.44C686.822 1106.43 671.709 1106.1 660.963 1106.43Z" fill="#000000" fill-rule="nonzero" opacity="1" stroke="none"/>
</g>
</svg>
